<svg width="27" height="28" viewBox="0 0 27 28" fill="none" xmlns="http://www.w3.org/2000/svg">
<path d="M8.775 2.75H18.225C21.825 2.75 24.75 5.675 24.75 9.275V18.725C24.75 20.4555 24.0625 22.1152 22.8389 23.3389C21.6152 24.5625 19.9555 25.25 18.225 25.25H8.775C5.175 25.25 2.25 22.325 2.25 18.725V9.275C2.25 7.54446 2.93745 5.8848 4.16113 4.66113C5.3848 3.43745 7.04446 2.75 8.775 2.75ZM8.55 5C7.47587 5 6.44574 5.4267 5.68622 6.18622C4.9267 6.94574 4.5 7.97587 4.5 9.05V18.95C4.5 21.1887 6.31125 23 8.55 23H18.45C19.5241 23 20.5543 22.5733 21.3138 21.8138C22.0733 21.0543 22.5 20.0241 22.5 18.95V9.05C22.5 6.81125 20.6887 5 18.45 5H8.55ZM19.4062 6.6875C19.7792 6.6875 20.1369 6.83566 20.4006 7.09938C20.6643 7.3631 20.8125 7.72079 20.8125 8.09375C20.8125 8.46671 20.6643 8.8244 20.4006 9.08812C20.1369 9.35184 19.7792 9.5 19.4062 9.5C19.0333 9.5 18.6756 9.35184 18.4119 9.08812C18.1482 8.8244 18 8.46671 18 8.09375C18 7.72079 18.1482 7.3631 18.4119 7.09938C18.6756 6.83566 19.0333 6.6875 19.4062 6.6875ZM13.5 8.375C14.9918 8.375 16.4226 8.96763 17.4775 10.0225C18.5324 11.0774 19.125 12.5082 19.125 14C19.125 15.4918 18.5324 16.9226 17.4775 17.9775C16.4226 19.0324 14.9918 19.625 13.5 19.625C12.0082 19.625 10.5774 19.0324 9.52252 17.9775C8.46763 16.9226 7.875 15.4918 7.875 14C7.875 12.5082 8.46763 11.0774 9.52252 10.0225C10.5774 8.96763 12.0082 8.375 13.5 8.375ZM13.5 10.625C12.6049 10.625 11.7464 10.9806 11.1135 11.6135C10.4806 12.2464 10.125 13.1049 10.125 14C10.125 14.8951 10.4806 15.7535 11.1135 16.3865C11.7464 17.0194 12.6049 17.375 13.5 17.375C14.3951 17.375 15.2535 17.0194 15.8865 16.3865C16.5194 15.7535 16.875 14.8951 16.875 14C16.875 13.1049 16.5194 12.2464 15.8865 11.6135C15.2535 10.9806 14.3951 10.625 13.5 10.625Z" fill="white"/>
</svg>
