<svg width="27" height="28" viewBox="0 0 27 28" fill="none" xmlns="http://www.w3.org/2000/svg">
<path fill-rule="evenodd" clip-rule="evenodd" d="M13.0193 8.95282C13.0193 5.84422 15.5393 3.32422 18.6479 3.32422C20.4731 3.32422 21.9293 4.18642 22.9049 5.43922C23.9368 5.22771 24.9261 4.84502 25.8317 4.30702C25.481 5.39819 24.7469 6.32538 23.7653 6.91702L23.7689 6.92242C24.7008 6.80983 25.6107 6.55929 26.4689 6.17902L26.4671 6.18262C25.8605 7.09162 25.0991 7.89262 24.2207 8.54602C24.2675 8.86462 24.2927 9.18322 24.2927 9.50002C24.2927 16.1366 19.2365 23.855 9.9377 23.855C7.19577 23.8574 4.51116 23.07 2.2049 21.587C2.09632 21.5173 2.004 21.4251 1.93418 21.3166C1.86436 21.2081 1.81869 21.0859 1.80025 20.9582C1.78182 20.8305 1.79105 20.7004 1.82732 20.5765C1.8636 20.4527 1.92607 20.3382 2.0105 20.2406C2.09079 20.1071 2.20786 19.9996 2.34769 19.931C2.48753 19.8624 2.64419 19.8355 2.7989 19.8536C4.4477 20.048 6.0929 19.8464 7.5455 19.2128C6.82902 18.8963 6.1876 18.4317 5.66333 17.8498C5.13906 17.2678 4.7438 16.5815 4.5035 15.836C4.45906 15.6974 4.45283 15.5493 4.48546 15.4074C4.51809 15.2654 4.58836 15.135 4.6889 15.0296C4.09734 14.5105 3.62351 13.871 3.29911 13.1539C2.97472 12.4368 2.80724 11.6587 2.8079 10.8716V10.8104C2.80786 10.6221 2.87342 10.4397 2.99333 10.2945C3.11323 10.1493 3.27998 10.0504 3.4649 10.0148C3.0568 9.22727 2.84441 8.35302 2.8457 7.46602C2.8457 6.62362 2.8511 5.56162 3.4433 4.60402C3.50657 4.50257 3.59151 4.41639 3.69204 4.35166C3.79256 4.28692 3.90616 4.24525 4.0247 4.22962C4.19657 4.17541 4.38077 4.17405 4.55343 4.22572C4.72608 4.27739 4.87925 4.37971 4.9931 4.51942C6.9996 6.98774 9.86946 8.60091 13.0211 9.03202V8.95282H13.0193ZM9.9377 22.055C8.5605 22.056 7.19263 21.8292 5.8895 21.3836C7.45692 21.1251 8.93535 20.4805 10.1915 19.508C10.3231 19.4048 10.4196 19.2632 10.4676 19.103C10.5155 18.9427 10.5127 18.7715 10.4594 18.6128C10.4062 18.4542 10.3051 18.316 10.1701 18.2172C10.0351 18.1183 9.87279 18.0637 9.7055 18.0608C9.10288 18.05 8.51092 17.9001 7.97576 17.6228C7.44061 17.3456 6.97673 16.9484 6.6203 16.4624C6.9623 16.4354 7.2971 16.376 7.6211 16.2896C7.79772 16.2424 7.95317 16.1368 8.06217 15.9901C8.17118 15.8433 8.22732 15.664 8.22148 15.4812C8.21564 15.2985 8.14816 15.1231 8.03 14.9836C7.91185 14.8441 7.74997 14.7487 7.5707 14.7128C6.8859 14.5741 6.25057 14.255 5.73034 13.7886C5.21011 13.3222 4.82386 12.7253 4.6115 12.0596C4.9715 12.146 5.3477 12.1982 5.7329 12.2108C5.90893 12.2167 6.08209 12.1651 6.22615 12.0638C6.37021 11.9625 6.47732 11.8169 6.53124 11.6493C6.58516 11.4816 6.58297 11.3009 6.52498 11.1346C6.46699 10.9683 6.35638 10.8254 6.2099 10.7276C5.67278 10.3698 5.23236 9.88483 4.92776 9.31584C4.62317 8.74684 4.46383 8.11142 4.4639 7.46602C4.4639 7.16362 4.4693 6.89542 4.4873 6.65062C7.00599 9.221 10.4007 10.748 13.9949 10.9274C14.1337 10.9345 14.2722 10.9093 14.3997 10.8539C14.5271 10.7984 14.64 10.7142 14.7294 10.6079C14.8189 10.5015 14.8825 10.3759 14.9152 10.2408C14.948 10.1058 14.9491 9.96495 14.9183 9.82942C14.7861 9.26737 14.7827 8.6827 14.9085 8.11917C15.0342 7.55564 15.2857 7.02784 15.6443 6.57528C16.0028 6.12271 16.4591 5.75711 16.9789 5.50582C17.4988 5.25454 18.0687 5.12408 18.6461 5.12422C20.8673 5.12422 22.4909 7.18162 22.4909 9.50182C22.4909 15.3626 18.0359 22.055 9.9377 22.055Z" fill="white"/>
</svg>
