<svg width="342" height="158" viewBox="0 0 342 158" fill="none" xmlns="http://www.w3.org/2000/svg">
<g clip-path="url(#clip0_183_500)">
<path d="M30.955 35.0001L30.715 30.3921H30.619C28.507 33.9441 25.291 35.7201 20.971 35.7201C15.947 35.7201 11.931 34.0561 8.92298 30.7281C5.94698 27.4001 4.45898 23.1441 4.45898 17.9601C4.45898 12.0721 6.33098 7.40006 10.075 3.94406C12.955 1.32006 16.635 0.00805664 21.115 0.00805664C25.307 0.00805664 28.651 1.04806 31.147 3.12806C33.675 5.20806 35.227 7.99206 35.803 11.4801H28.987C28.571 9.75206 27.707 8.37606 26.395 7.35206C25.083 6.29606 23.371 5.76806 21.259 5.76806C18.155 5.76806 15.755 6.90406 14.059 9.17606C12.395 11.4481 11.563 14.3761 11.563 17.9601C11.563 21.5121 12.427 24.4241 14.155 26.6961C15.915 28.9681 18.251 30.1041 21.163 30.1041C23.723 30.1041 25.835 29.3201 27.499 27.7521C29.163 26.1521 29.995 24.3441 29.995 22.3281V22.1361H21.739V16.7601H36.187V35.0001H30.955Z" fill="white"/>
<path d="M52.093 35.7201C48.125 35.7201 45.005 34.5041 42.733 32.0721C40.461 29.6081 39.325 26.4721 39.325 22.6641C39.325 18.9841 40.461 15.9121 42.733 13.4481C45.005 10.9521 47.917 9.70406 51.469 9.70406C55.341 9.70406 58.333 11.0481 60.445 13.7361C62.557 16.4241 63.613 20.0241 63.613 24.5361H45.757C46.013 26.4881 46.669 28.0081 47.725 29.0961C48.781 30.1521 50.221 30.6801 52.045 30.6801C54.445 30.6801 56.029 29.6721 56.797 27.6561H63.229C62.749 29.9601 61.533 31.8801 59.581 33.4161C57.629 34.9521 55.133 35.7201 52.093 35.7201ZM51.565 14.7441C48.397 14.7441 46.493 16.5041 45.853 20.0241H56.797C56.701 18.4561 56.173 17.1921 55.213 16.2321C54.253 15.2401 53.037 14.7441 51.565 14.7441Z" fill="white"/>
<path d="M64.7256 14.6961V10.3761H68.1336V2.69606H74.5176V10.3761H78.7416V14.6961H74.5176V27.7521C74.5176 29.3841 75.3336 30.2001 76.9656 30.2001L78.8856 30.1521V34.9521C77.8936 35.0161 76.5336 35.0481 74.8056 35.0481C72.9176 35.0481 71.3336 34.6001 70.0536 33.7041C68.7736 32.7761 68.1336 31.2561 68.1336 29.1441V14.6961H64.7256Z" fill="white"/>
<path d="M88.7256 14.6961V10.3761H92.1336V2.69606H98.5176V10.3761H102.742V14.6961H98.5176V27.7521C98.5176 29.3841 99.3336 30.2001 100.966 30.2001L102.886 30.1521V34.9521C101.894 35.0161 100.534 35.0481 98.8056 35.0481C96.9176 35.0481 95.3336 34.6001 94.0536 33.7041C92.7736 32.7761 92.1336 31.2561 92.1336 29.1441V14.6961H88.7256Z" fill="white"/>
<path d="M112.631 0.680057V13.5921H112.775C113.703 12.2481 114.711 11.2721 115.799 10.6641C116.919 10.0241 118.295 9.70406 119.927 9.70406C122.455 9.70406 124.503 10.5681 126.071 12.2961C127.639 13.9921 128.423 16.2001 128.423 18.9201V35.0001H121.895V19.8801C121.895 18.5361 121.511 17.4481 120.743 16.6161C120.007 15.7841 118.967 15.3681 117.623 15.3681C116.183 15.3681 114.983 15.8961 114.023 16.9521C113.095 18.0081 112.631 19.3681 112.631 21.0321V35.0001H106.103V0.680057H112.631Z" fill="white"/>
<path d="M132.447 35.0001V10.3761H138.975V35.0001H132.447ZM132.447 6.53606V0.680057H138.975V6.53606H132.447Z" fill="white"/>
<path d="M149.565 10.3761V13.7361H149.709C151.405 11.0481 153.837 9.70406 157.005 9.70406C159.533 9.70406 161.581 10.5681 163.149 12.2961C164.717 13.9921 165.501 16.2001 165.501 18.9201V35.0001H158.973V19.8801C158.973 18.5361 158.589 17.4481 157.821 16.6161C157.085 15.7841 156.045 15.3681 154.701 15.3681C153.261 15.3681 152.061 15.8961 151.101 16.9521C150.173 18.0081 149.709 19.3681 149.709 21.0321V35.0001H143.181V10.3761H149.565Z" fill="white"/>
<path d="M180.373 43.4001C177.045 43.4001 174.373 42.7281 172.357 41.3841C170.373 40.0401 169.205 38.1521 168.853 35.7201H175.333C175.973 37.5441 177.621 38.4561 180.277 38.4561C183.925 38.4561 185.749 36.7441 185.749 33.3201V30.6321H185.605C183.909 32.5521 181.765 33.5121 179.173 33.5121C176.261 33.5121 173.717 32.4401 171.541 30.2961C169.397 28.1521 168.325 25.3041 168.325 21.7521C168.325 18.1041 169.317 15.1921 171.301 13.0161C173.285 10.8081 175.845 9.70406 178.981 9.70406C181.957 9.70406 184.229 10.7921 185.797 12.9681H185.893V10.3761H192.181V33.1281C192.181 36.3281 191.205 38.8241 189.253 40.6161C187.269 42.4721 184.309 43.4001 180.373 43.4001ZM180.277 28.2801C182.229 28.2801 183.685 27.6561 184.645 26.4081C185.605 25.1601 186.085 23.5601 186.085 21.6081C186.085 19.6881 185.573 18.1041 184.549 16.8561C183.557 15.5761 182.117 14.9361 180.229 14.9361C178.565 14.9361 177.221 15.5441 176.197 16.7601C175.205 17.9761 174.709 19.6081 174.709 21.6561C174.709 23.7361 175.205 25.3681 176.197 26.5521C177.221 27.7041 178.581 28.2801 180.277 28.2801Z" fill="white"/>
<path d="M206.368 35.7201C202.848 35.7201 200.096 34.9521 198.112 33.4161C196.128 31.8481 195.04 29.7201 194.848 27.0321H200.896C201.312 29.7521 203.104 31.1121 206.272 31.1121C207.712 31.1121 208.816 30.8561 209.584 30.3441C210.384 29.8321 210.784 29.1441 210.784 28.2801C210.784 27.9601 210.72 27.6721 210.592 27.4161C210.496 27.1601 210.304 26.9361 210.016 26.7441C209.76 26.5201 209.52 26.3441 209.296 26.2161C209.104 26.0881 208.752 25.9601 208.24 25.8321C207.728 25.7041 207.328 25.6081 207.04 25.5441C206.784 25.4801 206.32 25.4001 205.648 25.3041C205.008 25.1761 204.56 25.0801 204.304 25.0161C202.96 24.7601 201.856 24.5041 200.992 24.2481C200.16 23.9601 199.28 23.5601 198.352 23.0481C197.424 22.5041 196.72 21.7841 196.24 20.8881C195.792 19.9601 195.568 18.8561 195.568 17.5761C195.568 15.0161 196.496 13.0641 198.352 11.7201C200.24 10.3761 202.656 9.70406 205.6 9.70406C208.768 9.70406 211.248 10.4401 213.04 11.9121C214.864 13.3521 215.904 15.3361 216.16 17.8641H210.256C210 15.4641 208.416 14.2641 205.504 14.2641C204.192 14.2641 203.152 14.5041 202.384 14.9841C201.648 15.4641 201.28 16.1361 201.28 17.0001C201.28 17.2881 201.328 17.5601 201.424 17.8161C201.552 18.0401 201.744 18.2481 202 18.4401C202.288 18.6001 202.56 18.7441 202.816 18.8721C203.072 18.9681 203.44 19.0801 203.92 19.2081C204.4 19.3041 204.816 19.4001 205.168 19.4961C205.52 19.5601 206 19.6561 206.608 19.7841C207.216 19.8801 207.696 19.9601 208.048 20.0241C209.072 20.2481 209.904 20.4561 210.544 20.6481C211.216 20.8081 211.984 21.0961 212.848 21.5121C213.712 21.8961 214.384 22.3441 214.864 22.8561C215.376 23.3361 215.808 24.0081 216.16 24.8721C216.544 25.7041 216.736 26.6801 216.736 27.8001C216.736 30.2321 215.776 32.1681 213.856 33.6081C211.968 35.0161 209.472 35.7201 206.368 35.7201Z" fill="white"/>
<path d="M236.96 35.7201C233.856 35.7201 231.344 34.5521 229.424 32.2161C227.504 29.8481 226.544 26.6801 226.544 22.7121C226.544 18.8721 227.52 15.7521 229.472 13.3521C231.456 10.9201 233.984 9.70406 237.056 9.70406C240.128 9.70406 242.448 10.9201 244.016 13.3521H244.16V0.680057H250.688V35.0001H244.4V31.7841H244.304C242.704 34.4081 240.256 35.7201 236.96 35.7201ZM238.4 30.2481C240.32 30.2481 241.776 29.5921 242.768 28.2801C243.792 26.9681 244.304 25.1601 244.304 22.8561C244.304 17.6081 242.4 14.9841 238.592 14.9841C236.832 14.9841 235.488 15.6881 234.56 17.0961C233.632 18.5041 233.168 20.3761 233.168 22.7121C233.168 25.1121 233.616 26.9681 234.512 28.2801C235.44 29.5921 236.736 30.2481 238.4 30.2481Z" fill="white"/>
<path d="M275.859 32.0241C273.459 34.4881 270.371 35.7201 266.595 35.7201C262.819 35.7201 259.731 34.4881 257.331 32.0241C254.931 29.5281 253.731 26.4241 253.731 22.7121C253.731 19.0001 254.931 15.9121 257.331 13.4481C259.731 10.9521 262.819 9.70406 266.595 9.70406C270.371 9.70406 273.459 10.9521 275.859 13.4481C278.259 15.9121 279.459 19.0001 279.459 22.7121C279.459 26.4241 278.259 29.5281 275.859 32.0241ZM266.595 30.7281C268.547 30.7281 270.067 30.0081 271.155 28.5681C272.275 27.0961 272.835 25.1441 272.835 22.7121C272.835 20.2801 272.275 18.3281 271.155 16.8561C270.067 15.3841 268.547 14.6481 266.595 14.6481C264.611 14.6481 263.075 15.3841 261.987 16.8561C260.899 18.2961 260.355 20.2481 260.355 22.7121C260.355 25.1441 260.899 27.0961 261.987 28.5681C263.075 30.0081 264.611 30.7281 266.595 30.7281Z" fill="white"/>
<path d="M288.878 10.3761V13.7361H289.022C290.718 11.0481 293.15 9.70406 296.318 9.70406C298.846 9.70406 300.894 10.5681 302.462 12.2961C304.03 13.9921 304.814 16.2001 304.814 18.9201V35.0001H298.286V19.8801C298.286 18.5361 297.902 17.4481 297.134 16.6161C296.398 15.7841 295.358 15.3681 294.014 15.3681C292.574 15.3681 291.374 15.8961 290.414 16.9521C289.486 18.0081 289.022 19.3681 289.022 21.0321V35.0001H282.494V10.3761H288.878Z" fill="white"/>
<path d="M320.405 35.7201C316.438 35.7201 313.317 34.5041 311.045 32.0721C308.773 29.6081 307.637 26.4721 307.637 22.6641C307.637 18.9841 308.773 15.9121 311.045 13.4481C313.317 10.9521 316.229 9.70406 319.781 9.70406C323.654 9.70406 326.645 11.0481 328.757 13.7361C330.869 16.4241 331.925 20.0241 331.925 24.5361H314.069C314.326 26.4881 314.981 28.0081 316.037 29.0961C317.093 30.1521 318.533 30.6801 320.357 30.6801C322.757 30.6801 324.341 29.6721 325.109 27.6561H331.541C331.061 29.9601 329.845 31.8801 327.893 33.4161C325.941 34.9521 323.445 35.7201 320.405 35.7201ZM319.877 14.7441C316.709 14.7441 314.806 16.5041 314.165 20.0241H325.109C325.013 18.4561 324.485 17.1921 323.525 16.2321C322.565 15.2401 321.349 14.7441 319.877 14.7441Z" fill="white"/>
<path d="M7.50078 118L0.300781 93.3759H6.78078L9.75678 104.8L10.8608 109.408H10.9568C11.3088 107.648 11.6608 106.096 12.0128 104.752L15.0848 93.3759H20.6528L23.8688 104.752L25.0208 109.408H25.1168C25.5008 107.68 25.8688 106.144 26.2208 104.8L29.3408 93.3759H35.6768L28.3328 118H22.3808L19.1168 105.904L18.0128 101.632H17.9168C17.5008 103.168 17.1168 104.592 16.7648 105.904L13.4048 118H7.50078Z" fill="white"/>
<path d="M37.9864 118V93.3759H44.5144V118H37.9864ZM37.9864 89.5359V83.6799H44.5144V89.5359H37.9864Z" fill="white"/>
<path d="M47.2808 97.6959V93.3759H50.6888V85.6959H57.0728V93.3759H61.2968V97.6959H57.0728V110.752C57.0728 112.384 57.8888 113.2 59.5208 113.2L61.4408 113.152V117.952C60.4488 118.016 59.0888 118.048 57.3608 118.048C55.4728 118.048 53.8888 117.6 52.6088 116.704C51.3288 115.776 50.6888 114.256 50.6888 112.144V97.6959H47.2808Z" fill="white"/>
<path d="M71.1863 83.6799V96.5919H71.3303C72.2583 95.2479 73.2663 94.2719 74.3543 93.6639C75.4743 93.0239 76.8503 92.7039 78.4823 92.7039C81.0103 92.7039 83.0583 93.5679 84.6263 95.2959C86.1943 96.9919 86.9783 99.1999 86.9783 101.92V118H80.4503V102.88C80.4503 101.536 80.0663 100.448 79.2983 99.6159C78.5623 98.7839 77.5223 98.3679 76.1783 98.3679C74.7383 98.3679 73.5383 98.8959 72.5783 99.9519C71.6503 101.008 71.1863 102.368 71.1863 104.032V118H64.6583V83.6799H71.1863Z" fill="white"/>
<mask id="path-3-outside-1_183_500" maskUnits="userSpaceOnUse" x="106.799" y="77" width="236" height="82" fill="black">
<rect fill="white" x="106.799" y="77" width="236" height="82"/>
<path d="M116.599 115.425C118.132 116.158 119.865 115.025 121.799 112.025C123.799 108.958 125.399 104.025 126.599 97.225C126.599 97.1583 126.799 97.1583 127.199 97.225C127.665 97.2917 128.132 97.3917 128.599 97.525C129.065 97.6583 129.499 97.825 129.899 98.025C130.299 98.225 130.499 98.3917 130.499 98.525C130.499 99.525 130.432 100.725 130.299 102.125C130.165 103.525 129.999 105.058 129.799 106.725C129.665 108.392 129.565 110.158 129.499 112.025C129.432 113.892 129.432 115.758 129.499 117.625C131.299 116.092 133.199 114.925 135.199 114.125C137.265 113.325 139.232 112.825 141.099 112.625C141.765 112.958 142.099 113.192 142.099 113.325C142.165 113.392 142.032 113.558 141.699 113.825C139.165 114.558 136.932 115.558 134.999 116.825C133.132 118.092 131.332 119.492 129.599 121.025C129.599 123.158 129.632 125.458 129.699 127.925C129.765 130.392 129.799 132.858 129.799 135.325C129.799 137.792 129.765 140.225 129.699 142.625C129.699 145.025 129.565 147.192 129.299 149.125C129.099 151.058 128.765 152.692 128.299 154.025C127.899 155.425 127.332 156.358 126.599 156.825C126.065 157.158 125.432 157.358 124.699 157.425C124.032 157.558 123.332 157.592 122.599 157.525C121.932 157.458 121.265 157.292 120.599 157.025C119.999 156.825 119.499 156.525 119.099 156.125C117.832 154.858 116.932 153.225 116.399 151.225C115.865 149.292 115.599 147.158 115.599 144.825C115.599 142.492 115.865 140.092 116.399 137.625C116.932 135.158 117.632 132.792 118.499 130.525C119.432 128.258 120.532 126.192 121.799 124.325C123.132 122.525 124.565 121.125 126.099 120.125C126.299 116.525 126.399 112.992 126.399 109.525C125.732 111.258 124.765 113.125 123.499 115.125C122.232 117.125 120.665 118.692 118.799 119.825C116.732 120.758 114.965 120.658 113.499 119.525C112.099 118.392 111.232 116.658 110.899 114.325C110.565 111.592 110.299 109.325 110.099 107.525C109.899 105.725 109.732 104.025 109.599 102.425C109.465 100.825 109.332 99.1583 109.199 97.425C109.132 95.6917 108.999 93.525 108.799 90.925C109.132 90.725 109.632 90.6917 110.299 90.825C110.965 90.8917 111.465 91.0917 111.799 91.425C111.999 91.425 112.132 91.9583 112.199 93.025C112.265 94.0917 112.332 95.4583 112.399 97.125C112.465 98.7917 112.565 100.625 112.699 102.625C112.832 104.558 113.032 106.425 113.299 108.225C113.632 109.958 114.032 111.492 114.499 112.825C115.032 114.158 115.732 115.025 116.599 115.425ZM126.799 123.825C126.399 124.292 125.965 124.725 125.499 125.125C125.099 125.592 124.699 126.092 124.299 126.625C123.432 127.692 122.599 129.125 121.799 130.925C120.999 132.725 120.299 134.692 119.699 136.825C119.165 138.958 118.799 141.092 118.599 143.225C118.399 145.425 118.432 147.358 118.699 149.025C119.032 150.758 119.665 152.092 120.599 153.025C121.532 154.025 122.832 154.425 124.499 154.225C125.165 154.092 125.699 153.325 126.099 151.925C126.499 150.525 126.765 148.792 126.899 146.725C127.099 144.725 127.199 142.492 127.199 140.025C127.265 137.625 127.265 135.292 127.199 133.025C127.132 130.825 127.032 128.892 126.899 127.225C126.832 125.558 126.799 124.425 126.799 123.825Z"/>
<path d="M140.065 92.425C141.332 92.4917 142.732 92.6917 144.265 93.025C145.799 93.2917 147.299 93.6917 148.765 94.225C150.232 94.6917 151.565 95.2583 152.765 95.925C154.032 96.525 155.065 97.225 155.865 98.025C156.665 98.7583 157.132 99.8917 157.265 101.425C157.399 102.892 157.299 104.525 156.965 106.325C156.632 108.125 156.099 109.992 155.365 111.925C154.699 113.792 153.932 115.492 153.065 117.025C152.199 118.558 151.265 119.825 150.265 120.825C149.265 121.825 148.332 122.325 147.465 122.325C145.999 122.325 144.765 121.992 143.765 121.325C142.765 120.592 141.965 119.725 141.365 118.725C140.765 117.725 140.299 116.692 139.965 115.625C139.699 114.492 139.532 113.525 139.465 112.725C139.265 109.192 139.232 106.058 139.365 103.325C139.499 100.592 139.732 98.325 140.065 96.525C139.865 96.1917 139.665 95.8917 139.465 95.625C139.265 95.3583 139.065 95.125 138.865 94.925C138.665 94.6583 138.432 94.425 138.165 94.225C138.432 94.0917 138.699 93.8917 138.965 93.625C139.499 93.225 139.865 92.825 140.065 92.425ZM143.665 116.225C143.865 116.492 144.132 116.792 144.465 117.125C144.799 117.392 145.199 117.625 145.665 117.825C146.199 117.958 146.732 117.958 147.265 117.825C147.799 117.692 148.365 117.325 148.965 116.725C150.565 115.058 151.765 113.358 152.565 111.625C153.365 109.825 153.865 108.158 154.065 106.625C154.332 105.025 154.299 103.625 153.965 102.425C153.699 101.225 153.232 100.358 152.565 99.825C152.032 99.4917 151.565 99.225 151.165 99.025C150.832 98.7583 150.365 98.525 149.765 98.325C149.232 98.125 148.532 97.925 147.665 97.725C146.799 97.4583 145.665 97.125 144.265 96.725C143.599 98.8583 143.132 100.992 142.865 103.125C142.599 105.258 142.465 107.225 142.465 109.025C142.532 110.758 142.665 112.292 142.865 113.625C143.132 114.892 143.399 115.758 143.665 116.225Z"/>
<path d="M165.689 118.025C166.156 118.358 166.923 117.792 167.989 116.325C169.056 114.858 170.089 112.992 171.089 110.725C172.089 108.392 172.923 105.925 173.589 103.325C174.256 100.725 174.456 98.4583 174.189 96.525C174.189 96.125 174.356 95.8917 174.689 95.825C175.023 95.6917 175.389 95.625 175.789 95.625C176.256 95.625 176.689 95.6583 177.089 95.725C177.556 95.7917 177.889 95.8583 178.089 95.925C177.956 97.3917 177.756 99.2583 177.489 101.525C177.289 103.725 177.156 105.925 177.089 108.125C177.023 110.325 177.089 112.325 177.289 114.125C177.556 115.925 178.123 117.092 178.989 117.625C179.723 118.092 180.556 118.058 181.489 117.525C182.489 116.992 183.423 116.325 184.289 115.525C185.223 114.725 186.056 114.025 186.789 113.425C187.523 112.758 187.989 112.525 188.189 112.725C187.923 113.858 187.356 114.958 186.489 116.025C185.623 117.092 184.623 117.992 183.489 118.725C182.423 119.458 181.256 119.992 179.989 120.325C178.789 120.592 177.689 120.525 176.689 120.125C176.289 120.058 175.956 119.692 175.689 119.025C175.489 118.292 175.289 117.458 175.089 116.525C174.956 115.592 174.823 114.592 174.689 113.525C174.623 112.458 174.523 111.492 174.389 110.625C173.856 111.692 173.256 112.892 172.589 114.225C171.923 115.558 171.256 116.825 170.589 118.025C169.923 119.225 169.289 120.258 168.689 121.125C168.089 121.992 167.589 122.492 167.189 122.625C165.856 123.158 164.823 123.258 164.089 122.925C163.356 122.658 162.856 122.258 162.589 121.725C162.189 121.525 161.889 120.858 161.689 119.725C161.556 118.525 161.423 117.025 161.289 115.225C161.223 113.425 161.189 111.392 161.189 109.125C161.189 106.858 161.189 104.558 161.189 102.225C161.189 99.825 161.156 97.4917 161.089 95.225C161.023 92.8917 160.923 90.7583 160.789 88.825C161.256 88.825 161.723 88.8583 162.189 88.925C162.589 88.9917 162.989 89.0917 163.389 89.225C163.789 89.2917 164.123 89.4917 164.389 89.825C164.723 91.3583 164.756 94.0583 164.489 97.925C164.289 101.792 164.123 106.458 163.989 111.925C163.989 112.125 163.989 112.525 163.989 113.125C164.056 113.658 164.123 114.258 164.189 114.925C164.323 115.592 164.489 116.225 164.689 116.825C164.956 117.425 165.289 117.825 165.689 118.025Z"/>
<path d="M186.796 90.825C186.73 90.225 187.03 90.0917 187.696 90.425C188.43 90.6917 189.163 90.9917 189.896 91.325C190.163 92.8583 190.363 94.0917 190.496 95.025C190.63 95.8917 190.73 96.725 190.796 97.525C190.863 98.325 190.93 99.1917 190.996 100.125C191.063 101.058 191.163 102.292 191.296 103.825C191.896 102.292 192.63 100.892 193.496 99.625C194.363 98.2917 195.463 97.1583 196.796 96.225C198.196 95.2917 199.83 94.625 201.696 94.225C203.63 93.7583 205.93 93.5917 208.596 93.725C208.596 94.2583 208.396 94.725 207.996 95.125C207.663 95.4583 206.83 95.725 205.496 95.925C203.563 96.2583 201.863 96.925 200.396 97.925C198.996 98.8583 197.763 99.9583 196.696 101.225C195.696 102.492 194.863 103.858 194.196 105.325C193.596 106.725 193.096 108.025 192.696 109.225C192.63 109.825 192.53 110.692 192.396 111.825C192.33 112.892 192.263 114.058 192.196 115.325C192.196 116.525 192.163 117.725 192.096 118.925C192.096 120.058 192.163 120.958 192.296 121.625C192.363 121.958 192.196 122.225 191.796 122.425C191.463 122.558 191.063 122.658 190.596 122.725C190.13 122.792 189.696 122.758 189.296 122.625C188.896 122.492 188.696 122.258 188.696 121.925C188.83 115.058 188.63 109.158 188.096 104.225C187.63 99.225 187.196 94.7583 186.796 90.825Z"/>
<path d="M237.008 92.625C239.875 92.425 242.675 92.225 245.408 92.025C248.208 91.7583 251.108 91.4917 254.108 91.225C254.775 91.2917 255.208 91.6583 255.408 92.325C255.608 92.925 255.342 93.2917 254.608 93.425C252.142 93.6917 249.308 94.0583 246.108 94.525C242.908 94.9917 239.875 95.5917 237.008 96.325C237.142 98.3917 237.208 100.525 237.208 102.725C237.208 104.858 237.242 106.992 237.308 109.125C237.442 111.192 237.642 113.225 237.908 115.225C238.242 117.158 238.742 118.958 239.408 120.625C240.342 121.758 241.275 122.425 242.208 122.625C243.142 122.825 244.008 122.758 244.808 122.425C245.675 122.158 246.442 121.725 247.108 121.125C247.842 120.458 248.475 119.825 249.008 119.225C249.475 118.758 249.842 118.758 250.108 119.225C250.442 119.692 250.175 120.392 249.308 121.325C248.908 121.792 248.408 122.292 247.808 122.825C247.208 123.358 246.475 123.792 245.608 124.125C244.808 124.525 243.875 124.758 242.808 124.825C241.808 124.958 240.708 124.858 239.508 124.525C237.975 124.125 236.842 122.892 236.108 120.825C235.375 118.758 234.808 116.358 234.408 113.625C234.075 110.825 233.842 107.925 233.708 104.925C233.575 101.925 233.408 99.225 233.208 96.825C230.275 97.0917 228.108 97.325 226.708 97.525C225.375 97.725 224.408 97.8583 223.808 97.925C223.208 97.9917 222.808 97.9583 222.608 97.825C222.408 97.6917 222.042 97.3917 221.508 96.925C221.575 96.5917 221.575 96.2917 221.508 96.025C221.508 95.6917 221.508 95.425 221.508 95.225C221.575 95.025 221.708 94.825 221.908 94.625C222.175 94.425 222.642 94.2583 223.308 94.125C224.308 93.8583 225.742 93.725 227.608 93.725C229.542 93.6583 231.408 93.4917 233.208 93.225C233.142 91.0917 233.075 89.425 233.008 88.225C232.942 87.025 232.875 85.9917 232.808 85.125C232.742 84.1917 232.675 83.2917 232.608 82.425C232.608 81.5583 232.608 80.425 232.608 79.025C232.608 78.6917 232.775 78.4583 233.108 78.325C233.508 78.125 233.942 78.025 234.408 78.025C234.875 77.9583 235.308 78.025 235.708 78.225C236.108 78.3583 236.375 78.5917 236.508 78.925C236.708 79.525 236.842 80.425 236.908 81.625C236.975 82.7583 237.008 83.9917 237.008 85.325C237.075 86.5917 237.108 87.8917 237.108 89.225C237.108 90.5583 237.075 91.6917 237.008 92.625Z"/>
<path d="M258.136 94.125C258.336 94.0583 258.902 93.8917 259.836 93.625C260.769 93.2917 261.536 93.225 262.136 93.425C264.069 93.3583 265.536 93.8583 266.536 94.925C267.602 95.9917 267.702 98.0583 266.836 101.125C265.569 104.525 263.869 107.358 261.736 109.625C259.669 111.892 257.202 114.058 254.336 116.125C255.002 117.858 256.002 118.825 257.336 119.025C258.669 119.225 260.069 119.025 261.536 118.425C263.002 117.758 264.436 116.892 265.836 115.825C267.236 114.758 268.369 113.825 269.236 113.025C270.636 111.825 271.736 110.825 272.536 110.025C273.402 109.158 274.302 108.125 275.236 106.925C275.436 106.792 275.536 106.825 275.536 107.025C275.602 107.158 275.602 107.392 275.536 107.725C275.469 108.058 275.369 108.525 275.236 109.125C275.036 109.592 274.836 110.025 274.636 110.425C274.436 110.758 274.136 111.158 273.736 111.625C273.402 112.025 272.936 112.525 272.336 113.125C271.736 113.725 271.002 114.525 270.136 115.525C269.136 116.458 268.169 117.392 267.236 118.325C266.302 119.192 265.302 119.958 264.236 120.625C263.236 121.292 262.102 121.758 260.836 122.025C259.636 122.292 258.236 122.292 256.636 122.025C255.302 121.558 254.236 121.058 253.436 120.525C252.636 119.992 252.002 119.458 251.536 118.925C251.136 118.325 250.836 117.792 250.636 117.325C250.436 116.858 250.302 116.458 250.236 116.125C249.902 114.792 249.769 112.992 249.836 110.725C249.902 108.458 250.569 105.525 251.836 101.925C252.702 100.058 253.636 98.4917 254.636 97.225C255.636 95.8917 256.802 94.8583 258.136 94.125ZM253.736 111.825C254.602 111.358 255.602 110.725 256.736 109.925C257.936 109.058 259.036 108.092 260.036 107.025C261.102 105.892 262.002 104.658 262.736 103.325C263.536 101.992 263.969 100.592 264.036 99.125C264.236 98.125 264.202 97.425 263.936 97.025C263.802 96.825 263.669 96.725 263.536 96.725C262.402 96.1917 261.269 96.3583 260.136 97.225C259.002 98.0917 257.969 99.325 257.036 100.925C256.102 102.525 255.302 104.325 254.636 106.325C254.036 108.258 253.736 110.092 253.736 111.825Z"/>
<path d="M294.459 93.025C294.392 93.425 294.226 94.2583 293.959 95.525C293.759 96.7917 293.526 98.2917 293.259 100.025C292.992 101.692 292.759 103.458 292.559 105.325C292.359 107.192 292.226 108.958 292.159 110.625C292.159 112.292 292.259 113.725 292.459 114.925C292.726 116.058 293.126 116.758 293.659 117.025C295.192 117.758 296.759 117.525 298.359 116.325C299.959 115.058 301.826 113.158 303.959 110.625C304.159 110.625 304.159 110.892 303.959 111.425C303.826 111.958 303.559 112.558 303.159 113.225C302.826 113.825 302.459 114.458 302.059 115.125C301.726 115.725 301.459 116.125 301.259 116.325C300.726 116.992 299.959 117.758 298.959 118.625C297.959 119.425 296.892 120.092 295.759 120.625C294.626 121.092 293.526 121.292 292.459 121.225C291.459 121.158 290.626 120.558 289.959 119.425C289.626 118.625 289.426 117.658 289.359 116.525C289.292 115.325 289.292 114.125 289.359 112.925C289.426 111.725 289.526 110.625 289.659 109.625C289.792 108.625 289.892 107.892 289.959 107.425C288.559 110.025 286.959 112.492 285.159 114.825C283.359 117.158 281.592 118.992 279.859 120.325C278.126 121.658 276.526 122.358 275.059 122.425C273.592 122.558 272.459 121.725 271.659 119.925C271.192 118.192 271.192 116.258 271.659 114.125C272.126 111.925 272.826 109.958 273.759 108.225C275.159 105.825 276.626 103.625 278.159 101.625C279.692 99.625 281.326 97.925 283.059 96.525C284.792 95.125 286.592 94.125 288.459 93.525C290.392 92.8583 292.392 92.6917 294.459 93.025ZM275.659 118.425C276.326 118.558 277.392 118.058 278.859 116.925C280.326 115.792 281.859 114.225 283.459 112.225C285.059 110.158 286.492 107.792 287.759 105.125C289.092 102.392 289.959 99.525 290.359 96.525C290.092 96.525 289.692 96.525 289.159 96.525C288.692 96.525 288.126 96.725 287.459 97.125C284.926 98.7917 282.759 100.758 280.959 103.025C279.159 105.225 277.759 107.392 276.759 109.525C275.759 111.592 275.159 113.458 274.959 115.125C274.759 116.792 274.992 117.892 275.659 118.425Z"/>
<path d="M303.461 88.725C303.461 88.125 303.627 87.7917 303.961 87.725C304.294 87.5917 304.627 87.5917 304.961 87.725C305.361 87.8583 305.727 88.0917 306.061 88.425C306.461 88.6917 306.727 88.8917 306.861 89.025C306.994 90.7583 306.927 93.125 306.661 96.125C306.394 99.125 306.261 102.858 306.261 107.325C306.527 106.258 306.927 104.992 307.461 103.525C307.994 102.058 308.594 100.592 309.261 99.125C309.994 97.5917 310.761 96.1917 311.561 94.925C312.427 93.5917 313.261 92.5583 314.061 91.825C314.861 91.025 315.627 90.625 316.361 90.625C317.094 90.625 317.761 91.1917 318.361 92.325C318.494 92.6583 318.594 93.3583 318.661 94.425C318.794 95.425 318.861 96.6583 318.861 98.125C318.927 99.5917 318.994 101.225 319.061 103.025C319.127 104.825 319.227 106.658 319.361 108.525C319.961 107.058 320.627 105.458 321.361 103.725C322.161 101.925 322.994 100.325 323.861 98.925C324.727 97.4583 325.661 96.325 326.661 95.525C327.661 94.725 328.727 94.5583 329.861 95.025C330.394 95.225 330.761 95.8583 330.961 96.925C331.161 97.925 331.327 99.125 331.461 100.525C331.594 101.925 331.727 103.425 331.861 105.025C332.061 106.558 332.394 107.958 332.861 109.225C333.327 110.492 333.994 111.525 334.861 112.325C335.727 113.058 336.894 113.325 338.361 113.125C339.161 113.125 339.727 113.158 340.061 113.225C340.461 113.225 340.727 113.258 340.861 113.325C341.061 113.392 341.127 113.492 341.061 113.625C341.061 113.758 341.061 113.958 341.061 114.225C338.594 115.492 336.561 115.925 334.961 115.525C333.427 115.058 332.194 114.125 331.261 112.725C330.394 111.258 329.761 109.525 329.361 107.525C329.027 105.458 328.794 103.425 328.661 101.425C328.527 100.558 328.227 100.192 327.761 100.325C327.361 100.458 326.827 100.958 326.161 101.825C325.561 102.692 324.894 103.792 324.161 105.125C323.427 106.392 322.727 107.758 322.061 109.225C321.394 110.692 320.794 112.125 320.261 113.525C319.794 114.858 319.427 115.958 319.161 116.825C318.827 117.425 318.294 117.592 317.561 117.325C316.827 117.058 316.361 116.558 316.161 115.825C315.894 114.758 315.727 113.458 315.661 111.925C315.661 110.325 315.661 108.725 315.661 107.125C315.727 105.525 315.794 103.992 315.861 102.525C315.927 100.992 315.927 99.6917 315.861 98.625C315.794 97.5583 315.661 96.825 315.461 96.425C315.261 96.025 314.894 96.125 314.361 96.725C313.227 98.4583 312.161 100.425 311.161 102.625C310.227 104.825 309.394 107.125 308.661 109.525C307.927 111.858 307.294 114.225 306.761 116.625C306.294 118.958 305.994 121.092 305.861 123.025C304.727 123.292 303.927 123.125 303.461 122.525C302.994 121.992 302.594 121.425 302.261 120.825C302.394 119.958 302.494 118.292 302.561 115.825C302.694 113.292 302.794 110.425 302.861 107.225C302.994 104.025 303.094 100.758 303.161 97.425C303.294 94.0917 303.394 91.1917 303.461 88.725Z"/>
</mask>
<path d="M116.599 115.425C118.132 116.158 119.865 115.025 121.799 112.025C123.799 108.958 125.399 104.025 126.599 97.225C126.599 97.1583 126.799 97.1583 127.199 97.225C127.665 97.2917 128.132 97.3917 128.599 97.525C129.065 97.6583 129.499 97.825 129.899 98.025C130.299 98.225 130.499 98.3917 130.499 98.525C130.499 99.525 130.432 100.725 130.299 102.125C130.165 103.525 129.999 105.058 129.799 106.725C129.665 108.392 129.565 110.158 129.499 112.025C129.432 113.892 129.432 115.758 129.499 117.625C131.299 116.092 133.199 114.925 135.199 114.125C137.265 113.325 139.232 112.825 141.099 112.625C141.765 112.958 142.099 113.192 142.099 113.325C142.165 113.392 142.032 113.558 141.699 113.825C139.165 114.558 136.932 115.558 134.999 116.825C133.132 118.092 131.332 119.492 129.599 121.025C129.599 123.158 129.632 125.458 129.699 127.925C129.765 130.392 129.799 132.858 129.799 135.325C129.799 137.792 129.765 140.225 129.699 142.625C129.699 145.025 129.565 147.192 129.299 149.125C129.099 151.058 128.765 152.692 128.299 154.025C127.899 155.425 127.332 156.358 126.599 156.825C126.065 157.158 125.432 157.358 124.699 157.425C124.032 157.558 123.332 157.592 122.599 157.525C121.932 157.458 121.265 157.292 120.599 157.025C119.999 156.825 119.499 156.525 119.099 156.125C117.832 154.858 116.932 153.225 116.399 151.225C115.865 149.292 115.599 147.158 115.599 144.825C115.599 142.492 115.865 140.092 116.399 137.625C116.932 135.158 117.632 132.792 118.499 130.525C119.432 128.258 120.532 126.192 121.799 124.325C123.132 122.525 124.565 121.125 126.099 120.125C126.299 116.525 126.399 112.992 126.399 109.525C125.732 111.258 124.765 113.125 123.499 115.125C122.232 117.125 120.665 118.692 118.799 119.825C116.732 120.758 114.965 120.658 113.499 119.525C112.099 118.392 111.232 116.658 110.899 114.325C110.565 111.592 110.299 109.325 110.099 107.525C109.899 105.725 109.732 104.025 109.599 102.425C109.465 100.825 109.332 99.1583 109.199 97.425C109.132 95.6917 108.999 93.525 108.799 90.925C109.132 90.725 109.632 90.6917 110.299 90.825C110.965 90.8917 111.465 91.0917 111.799 91.425C111.999 91.425 112.132 91.9583 112.199 93.025C112.265 94.0917 112.332 95.4583 112.399 97.125C112.465 98.7917 112.565 100.625 112.699 102.625C112.832 104.558 113.032 106.425 113.299 108.225C113.632 109.958 114.032 111.492 114.499 112.825C115.032 114.158 115.732 115.025 116.599 115.425ZM126.799 123.825C126.399 124.292 125.965 124.725 125.499 125.125C125.099 125.592 124.699 126.092 124.299 126.625C123.432 127.692 122.599 129.125 121.799 130.925C120.999 132.725 120.299 134.692 119.699 136.825C119.165 138.958 118.799 141.092 118.599 143.225C118.399 145.425 118.432 147.358 118.699 149.025C119.032 150.758 119.665 152.092 120.599 153.025C121.532 154.025 122.832 154.425 124.499 154.225C125.165 154.092 125.699 153.325 126.099 151.925C126.499 150.525 126.765 148.792 126.899 146.725C127.099 144.725 127.199 142.492 127.199 140.025C127.265 137.625 127.265 135.292 127.199 133.025C127.132 130.825 127.032 128.892 126.899 127.225C126.832 125.558 126.799 124.425 126.799 123.825Z" fill="#F5A11A"/>
<path d="M140.065 92.425C141.332 92.4917 142.732 92.6917 144.265 93.025C145.799 93.2917 147.299 93.6917 148.765 94.225C150.232 94.6917 151.565 95.2583 152.765 95.925C154.032 96.525 155.065 97.225 155.865 98.025C156.665 98.7583 157.132 99.8917 157.265 101.425C157.399 102.892 157.299 104.525 156.965 106.325C156.632 108.125 156.099 109.992 155.365 111.925C154.699 113.792 153.932 115.492 153.065 117.025C152.199 118.558 151.265 119.825 150.265 120.825C149.265 121.825 148.332 122.325 147.465 122.325C145.999 122.325 144.765 121.992 143.765 121.325C142.765 120.592 141.965 119.725 141.365 118.725C140.765 117.725 140.299 116.692 139.965 115.625C139.699 114.492 139.532 113.525 139.465 112.725C139.265 109.192 139.232 106.058 139.365 103.325C139.499 100.592 139.732 98.325 140.065 96.525C139.865 96.1917 139.665 95.8917 139.465 95.625C139.265 95.3583 139.065 95.125 138.865 94.925C138.665 94.6583 138.432 94.425 138.165 94.225C138.432 94.0917 138.699 93.8917 138.965 93.625C139.499 93.225 139.865 92.825 140.065 92.425ZM143.665 116.225C143.865 116.492 144.132 116.792 144.465 117.125C144.799 117.392 145.199 117.625 145.665 117.825C146.199 117.958 146.732 117.958 147.265 117.825C147.799 117.692 148.365 117.325 148.965 116.725C150.565 115.058 151.765 113.358 152.565 111.625C153.365 109.825 153.865 108.158 154.065 106.625C154.332 105.025 154.299 103.625 153.965 102.425C153.699 101.225 153.232 100.358 152.565 99.825C152.032 99.4917 151.565 99.225 151.165 99.025C150.832 98.7583 150.365 98.525 149.765 98.325C149.232 98.125 148.532 97.925 147.665 97.725C146.799 97.4583 145.665 97.125 144.265 96.725C143.599 98.8583 143.132 100.992 142.865 103.125C142.599 105.258 142.465 107.225 142.465 109.025C142.532 110.758 142.665 112.292 142.865 113.625C143.132 114.892 143.399 115.758 143.665 116.225Z" fill="#F5A11A"/>
<path d="M165.689 118.025C166.156 118.358 166.923 117.792 167.989 116.325C169.056 114.858 170.089 112.992 171.089 110.725C172.089 108.392 172.923 105.925 173.589 103.325C174.256 100.725 174.456 98.4583 174.189 96.525C174.189 96.125 174.356 95.8917 174.689 95.825C175.023 95.6917 175.389 95.625 175.789 95.625C176.256 95.625 176.689 95.6583 177.089 95.725C177.556 95.7917 177.889 95.8583 178.089 95.925C177.956 97.3917 177.756 99.2583 177.489 101.525C177.289 103.725 177.156 105.925 177.089 108.125C177.023 110.325 177.089 112.325 177.289 114.125C177.556 115.925 178.123 117.092 178.989 117.625C179.723 118.092 180.556 118.058 181.489 117.525C182.489 116.992 183.423 116.325 184.289 115.525C185.223 114.725 186.056 114.025 186.789 113.425C187.523 112.758 187.989 112.525 188.189 112.725C187.923 113.858 187.356 114.958 186.489 116.025C185.623 117.092 184.623 117.992 183.489 118.725C182.423 119.458 181.256 119.992 179.989 120.325C178.789 120.592 177.689 120.525 176.689 120.125C176.289 120.058 175.956 119.692 175.689 119.025C175.489 118.292 175.289 117.458 175.089 116.525C174.956 115.592 174.823 114.592 174.689 113.525C174.623 112.458 174.523 111.492 174.389 110.625C173.856 111.692 173.256 112.892 172.589 114.225C171.923 115.558 171.256 116.825 170.589 118.025C169.923 119.225 169.289 120.258 168.689 121.125C168.089 121.992 167.589 122.492 167.189 122.625C165.856 123.158 164.823 123.258 164.089 122.925C163.356 122.658 162.856 122.258 162.589 121.725C162.189 121.525 161.889 120.858 161.689 119.725C161.556 118.525 161.423 117.025 161.289 115.225C161.223 113.425 161.189 111.392 161.189 109.125C161.189 106.858 161.189 104.558 161.189 102.225C161.189 99.825 161.156 97.4917 161.089 95.225C161.023 92.8917 160.923 90.7583 160.789 88.825C161.256 88.825 161.723 88.8583 162.189 88.925C162.589 88.9917 162.989 89.0917 163.389 89.225C163.789 89.2917 164.123 89.4917 164.389 89.825C164.723 91.3583 164.756 94.0583 164.489 97.925C164.289 101.792 164.123 106.458 163.989 111.925C163.989 112.125 163.989 112.525 163.989 113.125C164.056 113.658 164.123 114.258 164.189 114.925C164.323 115.592 164.489 116.225 164.689 116.825C164.956 117.425 165.289 117.825 165.689 118.025Z" fill="#F5A11A"/>
<path d="M186.796 90.825C186.73 90.225 187.03 90.0917 187.696 90.425C188.43 90.6917 189.163 90.9917 189.896 91.325C190.163 92.8583 190.363 94.0917 190.496 95.025C190.63 95.8917 190.73 96.725 190.796 97.525C190.863 98.325 190.93 99.1917 190.996 100.125C191.063 101.058 191.163 102.292 191.296 103.825C191.896 102.292 192.63 100.892 193.496 99.625C194.363 98.2917 195.463 97.1583 196.796 96.225C198.196 95.2917 199.83 94.625 201.696 94.225C203.63 93.7583 205.93 93.5917 208.596 93.725C208.596 94.2583 208.396 94.725 207.996 95.125C207.663 95.4583 206.83 95.725 205.496 95.925C203.563 96.2583 201.863 96.925 200.396 97.925C198.996 98.8583 197.763 99.9583 196.696 101.225C195.696 102.492 194.863 103.858 194.196 105.325C193.596 106.725 193.096 108.025 192.696 109.225C192.63 109.825 192.53 110.692 192.396 111.825C192.33 112.892 192.263 114.058 192.196 115.325C192.196 116.525 192.163 117.725 192.096 118.925C192.096 120.058 192.163 120.958 192.296 121.625C192.363 121.958 192.196 122.225 191.796 122.425C191.463 122.558 191.063 122.658 190.596 122.725C190.13 122.792 189.696 122.758 189.296 122.625C188.896 122.492 188.696 122.258 188.696 121.925C188.83 115.058 188.63 109.158 188.096 104.225C187.63 99.225 187.196 94.7583 186.796 90.825Z" fill="#F5A11A"/>
<path d="M237.008 92.625C239.875 92.425 242.675 92.225 245.408 92.025C248.208 91.7583 251.108 91.4917 254.108 91.225C254.775 91.2917 255.208 91.6583 255.408 92.325C255.608 92.925 255.342 93.2917 254.608 93.425C252.142 93.6917 249.308 94.0583 246.108 94.525C242.908 94.9917 239.875 95.5917 237.008 96.325C237.142 98.3917 237.208 100.525 237.208 102.725C237.208 104.858 237.242 106.992 237.308 109.125C237.442 111.192 237.642 113.225 237.908 115.225C238.242 117.158 238.742 118.958 239.408 120.625C240.342 121.758 241.275 122.425 242.208 122.625C243.142 122.825 244.008 122.758 244.808 122.425C245.675 122.158 246.442 121.725 247.108 121.125C247.842 120.458 248.475 119.825 249.008 119.225C249.475 118.758 249.842 118.758 250.108 119.225C250.442 119.692 250.175 120.392 249.308 121.325C248.908 121.792 248.408 122.292 247.808 122.825C247.208 123.358 246.475 123.792 245.608 124.125C244.808 124.525 243.875 124.758 242.808 124.825C241.808 124.958 240.708 124.858 239.508 124.525C237.975 124.125 236.842 122.892 236.108 120.825C235.375 118.758 234.808 116.358 234.408 113.625C234.075 110.825 233.842 107.925 233.708 104.925C233.575 101.925 233.408 99.225 233.208 96.825C230.275 97.0917 228.108 97.325 226.708 97.525C225.375 97.725 224.408 97.8583 223.808 97.925C223.208 97.9917 222.808 97.9583 222.608 97.825C222.408 97.6917 222.042 97.3917 221.508 96.925C221.575 96.5917 221.575 96.2917 221.508 96.025C221.508 95.6917 221.508 95.425 221.508 95.225C221.575 95.025 221.708 94.825 221.908 94.625C222.175 94.425 222.642 94.2583 223.308 94.125C224.308 93.8583 225.742 93.725 227.608 93.725C229.542 93.6583 231.408 93.4917 233.208 93.225C233.142 91.0917 233.075 89.425 233.008 88.225C232.942 87.025 232.875 85.9917 232.808 85.125C232.742 84.1917 232.675 83.2917 232.608 82.425C232.608 81.5583 232.608 80.425 232.608 79.025C232.608 78.6917 232.775 78.4583 233.108 78.325C233.508 78.125 233.942 78.025 234.408 78.025C234.875 77.9583 235.308 78.025 235.708 78.225C236.108 78.3583 236.375 78.5917 236.508 78.925C236.708 79.525 236.842 80.425 236.908 81.625C236.975 82.7583 237.008 83.9917 237.008 85.325C237.075 86.5917 237.108 87.8917 237.108 89.225C237.108 90.5583 237.075 91.6917 237.008 92.625Z" fill="#F5A11A"/>
<path d="M258.136 94.125C258.336 94.0583 258.902 93.8917 259.836 93.625C260.769 93.2917 261.536 93.225 262.136 93.425C264.069 93.3583 265.536 93.8583 266.536 94.925C267.602 95.9917 267.702 98.0583 266.836 101.125C265.569 104.525 263.869 107.358 261.736 109.625C259.669 111.892 257.202 114.058 254.336 116.125C255.002 117.858 256.002 118.825 257.336 119.025C258.669 119.225 260.069 119.025 261.536 118.425C263.002 117.758 264.436 116.892 265.836 115.825C267.236 114.758 268.369 113.825 269.236 113.025C270.636 111.825 271.736 110.825 272.536 110.025C273.402 109.158 274.302 108.125 275.236 106.925C275.436 106.792 275.536 106.825 275.536 107.025C275.602 107.158 275.602 107.392 275.536 107.725C275.469 108.058 275.369 108.525 275.236 109.125C275.036 109.592 274.836 110.025 274.636 110.425C274.436 110.758 274.136 111.158 273.736 111.625C273.402 112.025 272.936 112.525 272.336 113.125C271.736 113.725 271.002 114.525 270.136 115.525C269.136 116.458 268.169 117.392 267.236 118.325C266.302 119.192 265.302 119.958 264.236 120.625C263.236 121.292 262.102 121.758 260.836 122.025C259.636 122.292 258.236 122.292 256.636 122.025C255.302 121.558 254.236 121.058 253.436 120.525C252.636 119.992 252.002 119.458 251.536 118.925C251.136 118.325 250.836 117.792 250.636 117.325C250.436 116.858 250.302 116.458 250.236 116.125C249.902 114.792 249.769 112.992 249.836 110.725C249.902 108.458 250.569 105.525 251.836 101.925C252.702 100.058 253.636 98.4917 254.636 97.225C255.636 95.8917 256.802 94.8583 258.136 94.125ZM253.736 111.825C254.602 111.358 255.602 110.725 256.736 109.925C257.936 109.058 259.036 108.092 260.036 107.025C261.102 105.892 262.002 104.658 262.736 103.325C263.536 101.992 263.969 100.592 264.036 99.125C264.236 98.125 264.202 97.425 263.936 97.025C263.802 96.825 263.669 96.725 263.536 96.725C262.402 96.1917 261.269 96.3583 260.136 97.225C259.002 98.0917 257.969 99.325 257.036 100.925C256.102 102.525 255.302 104.325 254.636 106.325C254.036 108.258 253.736 110.092 253.736 111.825Z" fill="#F5A11A"/>
<path d="M294.459 93.025C294.392 93.425 294.226 94.2583 293.959 95.525C293.759 96.7917 293.526 98.2917 293.259 100.025C292.992 101.692 292.759 103.458 292.559 105.325C292.359 107.192 292.226 108.958 292.159 110.625C292.159 112.292 292.259 113.725 292.459 114.925C292.726 116.058 293.126 116.758 293.659 117.025C295.192 117.758 296.759 117.525 298.359 116.325C299.959 115.058 301.826 113.158 303.959 110.625C304.159 110.625 304.159 110.892 303.959 111.425C303.826 111.958 303.559 112.558 303.159 113.225C302.826 113.825 302.459 114.458 302.059 115.125C301.726 115.725 301.459 116.125 301.259 116.325C300.726 116.992 299.959 117.758 298.959 118.625C297.959 119.425 296.892 120.092 295.759 120.625C294.626 121.092 293.526 121.292 292.459 121.225C291.459 121.158 290.626 120.558 289.959 119.425C289.626 118.625 289.426 117.658 289.359 116.525C289.292 115.325 289.292 114.125 289.359 112.925C289.426 111.725 289.526 110.625 289.659 109.625C289.792 108.625 289.892 107.892 289.959 107.425C288.559 110.025 286.959 112.492 285.159 114.825C283.359 117.158 281.592 118.992 279.859 120.325C278.126 121.658 276.526 122.358 275.059 122.425C273.592 122.558 272.459 121.725 271.659 119.925C271.192 118.192 271.192 116.258 271.659 114.125C272.126 111.925 272.826 109.958 273.759 108.225C275.159 105.825 276.626 103.625 278.159 101.625C279.692 99.625 281.326 97.925 283.059 96.525C284.792 95.125 286.592 94.125 288.459 93.525C290.392 92.8583 292.392 92.6917 294.459 93.025ZM275.659 118.425C276.326 118.558 277.392 118.058 278.859 116.925C280.326 115.792 281.859 114.225 283.459 112.225C285.059 110.158 286.492 107.792 287.759 105.125C289.092 102.392 289.959 99.525 290.359 96.525C290.092 96.525 289.692 96.525 289.159 96.525C288.692 96.525 288.126 96.725 287.459 97.125C284.926 98.7917 282.759 100.758 280.959 103.025C279.159 105.225 277.759 107.392 276.759 109.525C275.759 111.592 275.159 113.458 274.959 115.125C274.759 116.792 274.992 117.892 275.659 118.425Z" fill="#F5A11A"/>
<path d="M303.461 88.725C303.461 88.125 303.627 87.7917 303.961 87.725C304.294 87.5917 304.627 87.5917 304.961 87.725C305.361 87.8583 305.727 88.0917 306.061 88.425C306.461 88.6917 306.727 88.8917 306.861 89.025C306.994 90.7583 306.927 93.125 306.661 96.125C306.394 99.125 306.261 102.858 306.261 107.325C306.527 106.258 306.927 104.992 307.461 103.525C307.994 102.058 308.594 100.592 309.261 99.125C309.994 97.5917 310.761 96.1917 311.561 94.925C312.427 93.5917 313.261 92.5583 314.061 91.825C314.861 91.025 315.627 90.625 316.361 90.625C317.094 90.625 317.761 91.1917 318.361 92.325C318.494 92.6583 318.594 93.3583 318.661 94.425C318.794 95.425 318.861 96.6583 318.861 98.125C318.927 99.5917 318.994 101.225 319.061 103.025C319.127 104.825 319.227 106.658 319.361 108.525C319.961 107.058 320.627 105.458 321.361 103.725C322.161 101.925 322.994 100.325 323.861 98.925C324.727 97.4583 325.661 96.325 326.661 95.525C327.661 94.725 328.727 94.5583 329.861 95.025C330.394 95.225 330.761 95.8583 330.961 96.925C331.161 97.925 331.327 99.125 331.461 100.525C331.594 101.925 331.727 103.425 331.861 105.025C332.061 106.558 332.394 107.958 332.861 109.225C333.327 110.492 333.994 111.525 334.861 112.325C335.727 113.058 336.894 113.325 338.361 113.125C339.161 113.125 339.727 113.158 340.061 113.225C340.461 113.225 340.727 113.258 340.861 113.325C341.061 113.392 341.127 113.492 341.061 113.625C341.061 113.758 341.061 113.958 341.061 114.225C338.594 115.492 336.561 115.925 334.961 115.525C333.427 115.058 332.194 114.125 331.261 112.725C330.394 111.258 329.761 109.525 329.361 107.525C329.027 105.458 328.794 103.425 328.661 101.425C328.527 100.558 328.227 100.192 327.761 100.325C327.361 100.458 326.827 100.958 326.161 101.825C325.561 102.692 324.894 103.792 324.161 105.125C323.427 106.392 322.727 107.758 322.061 109.225C321.394 110.692 320.794 112.125 320.261 113.525C319.794 114.858 319.427 115.958 319.161 116.825C318.827 117.425 318.294 117.592 317.561 117.325C316.827 117.058 316.361 116.558 316.161 115.825C315.894 114.758 315.727 113.458 315.661 111.925C315.661 110.325 315.661 108.725 315.661 107.125C315.727 105.525 315.794 103.992 315.861 102.525C315.927 100.992 315.927 99.6917 315.861 98.625C315.794 97.5583 315.661 96.825 315.461 96.425C315.261 96.025 314.894 96.125 314.361 96.725C313.227 98.4583 312.161 100.425 311.161 102.625C310.227 104.825 309.394 107.125 308.661 109.525C307.927 111.858 307.294 114.225 306.761 116.625C306.294 118.958 305.994 121.092 305.861 123.025C304.727 123.292 303.927 123.125 303.461 122.525C302.994 121.992 302.594 121.425 302.261 120.825C302.394 119.958 302.494 118.292 302.561 115.825C302.694 113.292 302.794 110.425 302.861 107.225C302.994 104.025 303.094 100.758 303.161 97.425C303.294 94.0917 303.394 91.1917 303.461 88.725Z" fill="#F5A11A"/>
<path d="M116.599 115.425C118.132 116.158 119.865 115.025 121.799 112.025C123.799 108.958 125.399 104.025 126.599 97.225C126.599 97.1583 126.799 97.1583 127.199 97.225C127.665 97.2917 128.132 97.3917 128.599 97.525C129.065 97.6583 129.499 97.825 129.899 98.025C130.299 98.225 130.499 98.3917 130.499 98.525C130.499 99.525 130.432 100.725 130.299 102.125C130.165 103.525 129.999 105.058 129.799 106.725C129.665 108.392 129.565 110.158 129.499 112.025C129.432 113.892 129.432 115.758 129.499 117.625C131.299 116.092 133.199 114.925 135.199 114.125C137.265 113.325 139.232 112.825 141.099 112.625C141.765 112.958 142.099 113.192 142.099 113.325C142.165 113.392 142.032 113.558 141.699 113.825C139.165 114.558 136.932 115.558 134.999 116.825C133.132 118.092 131.332 119.492 129.599 121.025C129.599 123.158 129.632 125.458 129.699 127.925C129.765 130.392 129.799 132.858 129.799 135.325C129.799 137.792 129.765 140.225 129.699 142.625C129.699 145.025 129.565 147.192 129.299 149.125C129.099 151.058 128.765 152.692 128.299 154.025C127.899 155.425 127.332 156.358 126.599 156.825C126.065 157.158 125.432 157.358 124.699 157.425C124.032 157.558 123.332 157.592 122.599 157.525C121.932 157.458 121.265 157.292 120.599 157.025C119.999 156.825 119.499 156.525 119.099 156.125C117.832 154.858 116.932 153.225 116.399 151.225C115.865 149.292 115.599 147.158 115.599 144.825C115.599 142.492 115.865 140.092 116.399 137.625C116.932 135.158 117.632 132.792 118.499 130.525C119.432 128.258 120.532 126.192 121.799 124.325C123.132 122.525 124.565 121.125 126.099 120.125C126.299 116.525 126.399 112.992 126.399 109.525C125.732 111.258 124.765 113.125 123.499 115.125C122.232 117.125 120.665 118.692 118.799 119.825C116.732 120.758 114.965 120.658 113.499 119.525C112.099 118.392 111.232 116.658 110.899 114.325C110.565 111.592 110.299 109.325 110.099 107.525C109.899 105.725 109.732 104.025 109.599 102.425C109.465 100.825 109.332 99.1583 109.199 97.425C109.132 95.6917 108.999 93.525 108.799 90.925C109.132 90.725 109.632 90.6917 110.299 90.825C110.965 90.8917 111.465 91.0917 111.799 91.425C111.999 91.425 112.132 91.9583 112.199 93.025C112.265 94.0917 112.332 95.4583 112.399 97.125C112.465 98.7917 112.565 100.625 112.699 102.625C112.832 104.558 113.032 106.425 113.299 108.225C113.632 109.958 114.032 111.492 114.499 112.825C115.032 114.158 115.732 115.025 116.599 115.425ZM126.799 123.825C126.399 124.292 125.965 124.725 125.499 125.125C125.099 125.592 124.699 126.092 124.299 126.625C123.432 127.692 122.599 129.125 121.799 130.925C120.999 132.725 120.299 134.692 119.699 136.825C119.165 138.958 118.799 141.092 118.599 143.225C118.399 145.425 118.432 147.358 118.699 149.025C119.032 150.758 119.665 152.092 120.599 153.025C121.532 154.025 122.832 154.425 124.499 154.225C125.165 154.092 125.699 153.325 126.099 151.925C126.499 150.525 126.765 148.792 126.899 146.725C127.099 144.725 127.199 142.492 127.199 140.025C127.265 137.625 127.265 135.292 127.199 133.025C127.132 130.825 127.032 128.892 126.899 127.225C126.832 125.558 126.799 124.425 126.799 123.825Z" stroke="#F5A11A" stroke-width="2" mask="url(#path-3-outside-1_183_500)"/>
<path d="M140.065 92.425C141.332 92.4917 142.732 92.6917 144.265 93.025C145.799 93.2917 147.299 93.6917 148.765 94.225C150.232 94.6917 151.565 95.2583 152.765 95.925C154.032 96.525 155.065 97.225 155.865 98.025C156.665 98.7583 157.132 99.8917 157.265 101.425C157.399 102.892 157.299 104.525 156.965 106.325C156.632 108.125 156.099 109.992 155.365 111.925C154.699 113.792 153.932 115.492 153.065 117.025C152.199 118.558 151.265 119.825 150.265 120.825C149.265 121.825 148.332 122.325 147.465 122.325C145.999 122.325 144.765 121.992 143.765 121.325C142.765 120.592 141.965 119.725 141.365 118.725C140.765 117.725 140.299 116.692 139.965 115.625C139.699 114.492 139.532 113.525 139.465 112.725C139.265 109.192 139.232 106.058 139.365 103.325C139.499 100.592 139.732 98.325 140.065 96.525C139.865 96.1917 139.665 95.8917 139.465 95.625C139.265 95.3583 139.065 95.125 138.865 94.925C138.665 94.6583 138.432 94.425 138.165 94.225C138.432 94.0917 138.699 93.8917 138.965 93.625C139.499 93.225 139.865 92.825 140.065 92.425ZM143.665 116.225C143.865 116.492 144.132 116.792 144.465 117.125C144.799 117.392 145.199 117.625 145.665 117.825C146.199 117.958 146.732 117.958 147.265 117.825C147.799 117.692 148.365 117.325 148.965 116.725C150.565 115.058 151.765 113.358 152.565 111.625C153.365 109.825 153.865 108.158 154.065 106.625C154.332 105.025 154.299 103.625 153.965 102.425C153.699 101.225 153.232 100.358 152.565 99.825C152.032 99.4917 151.565 99.225 151.165 99.025C150.832 98.7583 150.365 98.525 149.765 98.325C149.232 98.125 148.532 97.925 147.665 97.725C146.799 97.4583 145.665 97.125 144.265 96.725C143.599 98.8583 143.132 100.992 142.865 103.125C142.599 105.258 142.465 107.225 142.465 109.025C142.532 110.758 142.665 112.292 142.865 113.625C143.132 114.892 143.399 115.758 143.665 116.225Z" stroke="#F5A11A" stroke-width="2" mask="url(#path-3-outside-1_183_500)"/>
<path d="M165.689 118.025C166.156 118.358 166.923 117.792 167.989 116.325C169.056 114.858 170.089 112.992 171.089 110.725C172.089 108.392 172.923 105.925 173.589 103.325C174.256 100.725 174.456 98.4583 174.189 96.525C174.189 96.125 174.356 95.8917 174.689 95.825C175.023 95.6917 175.389 95.625 175.789 95.625C176.256 95.625 176.689 95.6583 177.089 95.725C177.556 95.7917 177.889 95.8583 178.089 95.925C177.956 97.3917 177.756 99.2583 177.489 101.525C177.289 103.725 177.156 105.925 177.089 108.125C177.023 110.325 177.089 112.325 177.289 114.125C177.556 115.925 178.123 117.092 178.989 117.625C179.723 118.092 180.556 118.058 181.489 117.525C182.489 116.992 183.423 116.325 184.289 115.525C185.223 114.725 186.056 114.025 186.789 113.425C187.523 112.758 187.989 112.525 188.189 112.725C187.923 113.858 187.356 114.958 186.489 116.025C185.623 117.092 184.623 117.992 183.489 118.725C182.423 119.458 181.256 119.992 179.989 120.325C178.789 120.592 177.689 120.525 176.689 120.125C176.289 120.058 175.956 119.692 175.689 119.025C175.489 118.292 175.289 117.458 175.089 116.525C174.956 115.592 174.823 114.592 174.689 113.525C174.623 112.458 174.523 111.492 174.389 110.625C173.856 111.692 173.256 112.892 172.589 114.225C171.923 115.558 171.256 116.825 170.589 118.025C169.923 119.225 169.289 120.258 168.689 121.125C168.089 121.992 167.589 122.492 167.189 122.625C165.856 123.158 164.823 123.258 164.089 122.925C163.356 122.658 162.856 122.258 162.589 121.725C162.189 121.525 161.889 120.858 161.689 119.725C161.556 118.525 161.423 117.025 161.289 115.225C161.223 113.425 161.189 111.392 161.189 109.125C161.189 106.858 161.189 104.558 161.189 102.225C161.189 99.825 161.156 97.4917 161.089 95.225C161.023 92.8917 160.923 90.7583 160.789 88.825C161.256 88.825 161.723 88.8583 162.189 88.925C162.589 88.9917 162.989 89.0917 163.389 89.225C163.789 89.2917 164.123 89.4917 164.389 89.825C164.723 91.3583 164.756 94.0583 164.489 97.925C164.289 101.792 164.123 106.458 163.989 111.925C163.989 112.125 163.989 112.525 163.989 113.125C164.056 113.658 164.123 114.258 164.189 114.925C164.323 115.592 164.489 116.225 164.689 116.825C164.956 117.425 165.289 117.825 165.689 118.025Z" stroke="#F5A11A" stroke-width="2" mask="url(#path-3-outside-1_183_500)"/>
<path d="M186.796 90.825C186.73 90.225 187.03 90.0917 187.696 90.425C188.43 90.6917 189.163 90.9917 189.896 91.325C190.163 92.8583 190.363 94.0917 190.496 95.025C190.63 95.8917 190.73 96.725 190.796 97.525C190.863 98.325 190.93 99.1917 190.996 100.125C191.063 101.058 191.163 102.292 191.296 103.825C191.896 102.292 192.63 100.892 193.496 99.625C194.363 98.2917 195.463 97.1583 196.796 96.225C198.196 95.2917 199.83 94.625 201.696 94.225C203.63 93.7583 205.93 93.5917 208.596 93.725C208.596 94.2583 208.396 94.725 207.996 95.125C207.663 95.4583 206.83 95.725 205.496 95.925C203.563 96.2583 201.863 96.925 200.396 97.925C198.996 98.8583 197.763 99.9583 196.696 101.225C195.696 102.492 194.863 103.858 194.196 105.325C193.596 106.725 193.096 108.025 192.696 109.225C192.63 109.825 192.53 110.692 192.396 111.825C192.33 112.892 192.263 114.058 192.196 115.325C192.196 116.525 192.163 117.725 192.096 118.925C192.096 120.058 192.163 120.958 192.296 121.625C192.363 121.958 192.196 122.225 191.796 122.425C191.463 122.558 191.063 122.658 190.596 122.725C190.13 122.792 189.696 122.758 189.296 122.625C188.896 122.492 188.696 122.258 188.696 121.925C188.83 115.058 188.63 109.158 188.096 104.225C187.63 99.225 187.196 94.7583 186.796 90.825Z" stroke="#F5A11A" stroke-width="2" mask="url(#path-3-outside-1_183_500)"/>
<path d="M237.008 92.625C239.875 92.425 242.675 92.225 245.408 92.025C248.208 91.7583 251.108 91.4917 254.108 91.225C254.775 91.2917 255.208 91.6583 255.408 92.325C255.608 92.925 255.342 93.2917 254.608 93.425C252.142 93.6917 249.308 94.0583 246.108 94.525C242.908 94.9917 239.875 95.5917 237.008 96.325C237.142 98.3917 237.208 100.525 237.208 102.725C237.208 104.858 237.242 106.992 237.308 109.125C237.442 111.192 237.642 113.225 237.908 115.225C238.242 117.158 238.742 118.958 239.408 120.625C240.342 121.758 241.275 122.425 242.208 122.625C243.142 122.825 244.008 122.758 244.808 122.425C245.675 122.158 246.442 121.725 247.108 121.125C247.842 120.458 248.475 119.825 249.008 119.225C249.475 118.758 249.842 118.758 250.108 119.225C250.442 119.692 250.175 120.392 249.308 121.325C248.908 121.792 248.408 122.292 247.808 122.825C247.208 123.358 246.475 123.792 245.608 124.125C244.808 124.525 243.875 124.758 242.808 124.825C241.808 124.958 240.708 124.858 239.508 124.525C237.975 124.125 236.842 122.892 236.108 120.825C235.375 118.758 234.808 116.358 234.408 113.625C234.075 110.825 233.842 107.925 233.708 104.925C233.575 101.925 233.408 99.225 233.208 96.825C230.275 97.0917 228.108 97.325 226.708 97.525C225.375 97.725 224.408 97.8583 223.808 97.925C223.208 97.9917 222.808 97.9583 222.608 97.825C222.408 97.6917 222.042 97.3917 221.508 96.925C221.575 96.5917 221.575 96.2917 221.508 96.025C221.508 95.6917 221.508 95.425 221.508 95.225C221.575 95.025 221.708 94.825 221.908 94.625C222.175 94.425 222.642 94.2583 223.308 94.125C224.308 93.8583 225.742 93.725 227.608 93.725C229.542 93.6583 231.408 93.4917 233.208 93.225C233.142 91.0917 233.075 89.425 233.008 88.225C232.942 87.025 232.875 85.9917 232.808 85.125C232.742 84.1917 232.675 83.2917 232.608 82.425C232.608 81.5583 232.608 80.425 232.608 79.025C232.608 78.6917 232.775 78.4583 233.108 78.325C233.508 78.125 233.942 78.025 234.408 78.025C234.875 77.9583 235.308 78.025 235.708 78.225C236.108 78.3583 236.375 78.5917 236.508 78.925C236.708 79.525 236.842 80.425 236.908 81.625C236.975 82.7583 237.008 83.9917 237.008 85.325C237.075 86.5917 237.108 87.8917 237.108 89.225C237.108 90.5583 237.075 91.6917 237.008 92.625Z" stroke="#F5A11A" stroke-width="2" mask="url(#path-3-outside-1_183_500)"/>
<path d="M258.136 94.125C258.336 94.0583 258.902 93.8917 259.836 93.625C260.769 93.2917 261.536 93.225 262.136 93.425C264.069 93.3583 265.536 93.8583 266.536 94.925C267.602 95.9917 267.702 98.0583 266.836 101.125C265.569 104.525 263.869 107.358 261.736 109.625C259.669 111.892 257.202 114.058 254.336 116.125C255.002 117.858 256.002 118.825 257.336 119.025C258.669 119.225 260.069 119.025 261.536 118.425C263.002 117.758 264.436 116.892 265.836 115.825C267.236 114.758 268.369 113.825 269.236 113.025C270.636 111.825 271.736 110.825 272.536 110.025C273.402 109.158 274.302 108.125 275.236 106.925C275.436 106.792 275.536 106.825 275.536 107.025C275.602 107.158 275.602 107.392 275.536 107.725C275.469 108.058 275.369 108.525 275.236 109.125C275.036 109.592 274.836 110.025 274.636 110.425C274.436 110.758 274.136 111.158 273.736 111.625C273.402 112.025 272.936 112.525 272.336 113.125C271.736 113.725 271.002 114.525 270.136 115.525C269.136 116.458 268.169 117.392 267.236 118.325C266.302 119.192 265.302 119.958 264.236 120.625C263.236 121.292 262.102 121.758 260.836 122.025C259.636 122.292 258.236 122.292 256.636 122.025C255.302 121.558 254.236 121.058 253.436 120.525C252.636 119.992 252.002 119.458 251.536 118.925C251.136 118.325 250.836 117.792 250.636 117.325C250.436 116.858 250.302 116.458 250.236 116.125C249.902 114.792 249.769 112.992 249.836 110.725C249.902 108.458 250.569 105.525 251.836 101.925C252.702 100.058 253.636 98.4917 254.636 97.225C255.636 95.8917 256.802 94.8583 258.136 94.125ZM253.736 111.825C254.602 111.358 255.602 110.725 256.736 109.925C257.936 109.058 259.036 108.092 260.036 107.025C261.102 105.892 262.002 104.658 262.736 103.325C263.536 101.992 263.969 100.592 264.036 99.125C264.236 98.125 264.202 97.425 263.936 97.025C263.802 96.825 263.669 96.725 263.536 96.725C262.402 96.1917 261.269 96.3583 260.136 97.225C259.002 98.0917 257.969 99.325 257.036 100.925C256.102 102.525 255.302 104.325 254.636 106.325C254.036 108.258 253.736 110.092 253.736 111.825Z" stroke="#F5A11A" stroke-width="2" mask="url(#path-3-outside-1_183_500)"/>
<path d="M294.459 93.025C294.392 93.425 294.226 94.2583 293.959 95.525C293.759 96.7917 293.526 98.2917 293.259 100.025C292.992 101.692 292.759 103.458 292.559 105.325C292.359 107.192 292.226 108.958 292.159 110.625C292.159 112.292 292.259 113.725 292.459 114.925C292.726 116.058 293.126 116.758 293.659 117.025C295.192 117.758 296.759 117.525 298.359 116.325C299.959 115.058 301.826 113.158 303.959 110.625C304.159 110.625 304.159 110.892 303.959 111.425C303.826 111.958 303.559 112.558 303.159 113.225C302.826 113.825 302.459 114.458 302.059 115.125C301.726 115.725 301.459 116.125 301.259 116.325C300.726 116.992 299.959 117.758 298.959 118.625C297.959 119.425 296.892 120.092 295.759 120.625C294.626 121.092 293.526 121.292 292.459 121.225C291.459 121.158 290.626 120.558 289.959 119.425C289.626 118.625 289.426 117.658 289.359 116.525C289.292 115.325 289.292 114.125 289.359 112.925C289.426 111.725 289.526 110.625 289.659 109.625C289.792 108.625 289.892 107.892 289.959 107.425C288.559 110.025 286.959 112.492 285.159 114.825C283.359 117.158 281.592 118.992 279.859 120.325C278.126 121.658 276.526 122.358 275.059 122.425C273.592 122.558 272.459 121.725 271.659 119.925C271.192 118.192 271.192 116.258 271.659 114.125C272.126 111.925 272.826 109.958 273.759 108.225C275.159 105.825 276.626 103.625 278.159 101.625C279.692 99.625 281.326 97.925 283.059 96.525C284.792 95.125 286.592 94.125 288.459 93.525C290.392 92.8583 292.392 92.6917 294.459 93.025ZM275.659 118.425C276.326 118.558 277.392 118.058 278.859 116.925C280.326 115.792 281.859 114.225 283.459 112.225C285.059 110.158 286.492 107.792 287.759 105.125C289.092 102.392 289.959 99.525 290.359 96.525C290.092 96.525 289.692 96.525 289.159 96.525C288.692 96.525 288.126 96.725 287.459 97.125C284.926 98.7917 282.759 100.758 280.959 103.025C279.159 105.225 277.759 107.392 276.759 109.525C275.759 111.592 275.159 113.458 274.959 115.125C274.759 116.792 274.992 117.892 275.659 118.425Z" stroke="#F5A11A" stroke-width="2" mask="url(#path-3-outside-1_183_500)"/>
<path d="M303.461 88.725C303.461 88.125 303.627 87.7917 303.961 87.725C304.294 87.5917 304.627 87.5917 304.961 87.725C305.361 87.8583 305.727 88.0917 306.061 88.425C306.461 88.6917 306.727 88.8917 306.861 89.025C306.994 90.7583 306.927 93.125 306.661 96.125C306.394 99.125 306.261 102.858 306.261 107.325C306.527 106.258 306.927 104.992 307.461 103.525C307.994 102.058 308.594 100.592 309.261 99.125C309.994 97.5917 310.761 96.1917 311.561 94.925C312.427 93.5917 313.261 92.5583 314.061 91.825C314.861 91.025 315.627 90.625 316.361 90.625C317.094 90.625 317.761 91.1917 318.361 92.325C318.494 92.6583 318.594 93.3583 318.661 94.425C318.794 95.425 318.861 96.6583 318.861 98.125C318.927 99.5917 318.994 101.225 319.061 103.025C319.127 104.825 319.227 106.658 319.361 108.525C319.961 107.058 320.627 105.458 321.361 103.725C322.161 101.925 322.994 100.325 323.861 98.925C324.727 97.4583 325.661 96.325 326.661 95.525C327.661 94.725 328.727 94.5583 329.861 95.025C330.394 95.225 330.761 95.8583 330.961 96.925C331.161 97.925 331.327 99.125 331.461 100.525C331.594 101.925 331.727 103.425 331.861 105.025C332.061 106.558 332.394 107.958 332.861 109.225C333.327 110.492 333.994 111.525 334.861 112.325C335.727 113.058 336.894 113.325 338.361 113.125C339.161 113.125 339.727 113.158 340.061 113.225C340.461 113.225 340.727 113.258 340.861 113.325C341.061 113.392 341.127 113.492 341.061 113.625C341.061 113.758 341.061 113.958 341.061 114.225C338.594 115.492 336.561 115.925 334.961 115.525C333.427 115.058 332.194 114.125 331.261 112.725C330.394 111.258 329.761 109.525 329.361 107.525C329.027 105.458 328.794 103.425 328.661 101.425C328.527 100.558 328.227 100.192 327.761 100.325C327.361 100.458 326.827 100.958 326.161 101.825C325.561 102.692 324.894 103.792 324.161 105.125C323.427 106.392 322.727 107.758 322.061 109.225C321.394 110.692 320.794 112.125 320.261 113.525C319.794 114.858 319.427 115.958 319.161 116.825C318.827 117.425 318.294 117.592 317.561 117.325C316.827 117.058 316.361 116.558 316.161 115.825C315.894 114.758 315.727 113.458 315.661 111.925C315.661 110.325 315.661 108.725 315.661 107.125C315.727 105.525 315.794 103.992 315.861 102.525C315.927 100.992 315.927 99.6917 315.861 98.625C315.794 97.5583 315.661 96.825 315.461 96.425C315.261 96.025 314.894 96.125 314.361 96.725C313.227 98.4583 312.161 100.425 311.161 102.625C310.227 104.825 309.394 107.125 308.661 109.525C307.927 111.858 307.294 114.225 306.761 116.625C306.294 118.958 305.994 121.092 305.861 123.025C304.727 123.292 303.927 123.125 303.461 122.525C302.994 121.992 302.594 121.425 302.261 120.825C302.394 119.958 302.494 118.292 302.561 115.825C302.694 113.292 302.794 110.425 302.861 107.225C302.994 104.025 303.094 100.758 303.161 97.425C303.294 94.0917 303.394 91.1917 303.461 88.725Z" stroke="#F5A11A" stroke-width="2" mask="url(#path-3-outside-1_183_500)"/>
</g>
<defs>
<clipPath id="clip0_183_500">
<rect width="340.785" height="157.55" fill="white" transform="translate(0.300781 0.00805664)"/>
</clipPath>
</defs>
</svg>
