<svg width="1440" height="700" viewBox="0 0 1440 700" fill="none" xmlns="http://www.w3.org/2000/svg">
    <path
        d="M1148.65 455.543C1145.51 454.578 1141.84 456.034 1138.71 456.679C1132.59 457.939 1126.34 458.654 1120.17 459.683C1096.32 463.661 1072.51 467.834 1048.66 471.835C987.725 482.061 926.838 492.635 865.898 502.867C840.332 507.159 814.819 512.574 789.087 515.846C797.576 478.705 808.839 441.962 818.785 405.18C834.538 346.925 849.993 288.579 865.428 230.235C873.143 201.061 880.989 171.91 888.796 142.763C890.809 135.259 892.789 127.719 894.868 120.232C896.199 115.428 897.934 110.651 898.345 105.653C903.741 109.456 907.688 114.88 912.257 119.569C922.845 130.428 933.102 141.605 943.432 152.703C970.892 182.203 998.743 211.338 1026.2 240.838C1070.24 288.153 1115.14 334.672 1159.18 381.987C1209.95 436.528 1260.7 491.129 1312.17 545.004C1326.97 560.493 1341.36 576.371 1355.96 592.053C1369.23 606.308 1383.13 620.018 1396.18 634.464C1406.14 645.478 1416.38 656.302 1426.75 666.935C1430.96 671.255 1434.72 677.16 1440 680.188C1436.15 672.448 1429.82 665.285 1424.69 658.32C1416.04 646.557 1407.29 634.883 1398.53 623.199C1369.55 584.528 1340.13 546.175 1310.64 507.894C1218.66 388.478 1125.8 269.76 1033.35 150.715C1005.32 114.626 977.05 78.734 948.948 42.6994C942.068 33.875 935.592 23.3188 927.454 15.6428C914.773 3.6763 895.656 -1.88958 878.48 0.572213C872.917 1.36965 867.706 2.78535 862.588 5.1317C848.053 11.7912 837.101 23.1954 831.101 38.0607C828.122 45.4511 826.738 53.58 824.659 61.2541C820.533 76.4333 817.156 91.9987 812.369 106.978C808.21 120.013 805.509 133.557 801.834 146.739C793.49 176.701 785.796 206.838 777.644 236.862C757.812 309.907 737.934 382.956 718.884 456.206C713.639 476.345 707.733 496.318 702.693 516.509C700.614 524.818 697.323 533.128 696.496 541.69C694.655 560.717 700.488 580.2 714.924 593.265C729.386 606.353 749.482 611.954 768.56 607.676C778.062 605.544 787.345 600.704 796.371 597.089C810.733 591.339 825.049 585.477 839.412 579.727C908.986 551.875 978.5 523.876 1048 495.833C1069.62 487.108 1091.29 478.518 1112.89 469.722C1124.71 464.905 1136.51 459.503 1148.65 455.543Z" />
    <path
        d="M788.599 515.735L788.44 516.432L789.15 516.342C806.104 514.186 822.977 511.099 839.816 508.017C848.544 506.419 857.264 504.824 865.981 503.36C896.244 498.279 926.493 493.113 956.741 487.948L957.365 487.842C987.82 482.641 1018.27 477.441 1048.74 472.329C1059.92 470.452 1071.09 468.54 1082.25 466.628C1094.92 464.459 1107.58 462.291 1120.25 460.176C1122.49 459.802 1124.75 459.469 1127.02 459.134C1130.96 458.553 1134.92 457.969 1138.81 457.169L1138.71 456.679L1138.81 457.169C1139.54 457.019 1140.29 456.828 1141.04 456.635L1141.27 456.578C1142.1 456.366 1142.94 456.157 1143.77 455.998C1144.72 455.819 1145.64 455.707 1146.52 455.724C1138.37 458.492 1130.36 461.866 1122.4 465.218C1119.16 466.583 1115.93 467.944 1112.7 469.259C1099.69 474.56 1086.64 479.785 1073.6 485.01C1065 488.456 1056.4 491.901 1047.81 495.369C978.314 523.412 908.799 551.411 839.226 579.263C832.044 582.138 824.873 585.042 817.704 587.945L817.62 587.978C810.478 590.87 803.337 593.762 796.185 596.625C793.588 597.665 790.983 598.799 788.367 599.939C781.821 602.79 775.202 605.673 768.45 607.188C749.537 611.429 729.605 605.877 715.259 592.894C700.963 579.955 695.165 560.639 696.993 541.738L696.496 541.69L696.993 541.738C697.403 537.503 698.423 533.319 699.606 529.141C700.022 527.673 700.459 526.202 700.897 524.73C701.7 522.029 702.504 519.324 703.179 516.63L702.693 516.509L703.179 516.63C706.037 505.178 709.169 493.814 712.303 482.444C714.697 473.758 717.092 465.068 719.367 456.332L718.884 456.206L719.367 456.332C737.484 386.672 756.35 317.194 775.213 247.725C776.184 244.147 777.156 240.57 778.127 236.993C781.487 224.619 784.767 212.231 788.047 199.845C792.729 182.166 797.409 164.492 802.315 146.873C803.794 141.568 805.116 136.204 806.436 130.847C806.758 129.538 807.081 128.231 807.405 126.924C809.059 120.263 810.771 113.631 812.845 107.13C815.952 97.4076 818.47 87.423 820.979 77.4748C822.338 72.0851 823.695 66.7061 825.141 61.3853L825.141 61.3849C825.799 58.9578 826.384 56.501 826.969 54.0451C828.25 48.6691 829.529 43.2968 831.565 38.2478C837.516 23.5019 848.377 12.1929 862.796 5.58626L862.588 5.1317L862.796 5.58622C867.865 3.26262 873.029 1.85879 878.551 1.06716C895.586 -1.37438 914.548 4.15092 927.111 16.0065L927.111 16.0066C931.147 19.814 934.78 24.344 938.271 29.0388C939.614 30.8446 940.94 32.6799 942.259 34.5067C944.357 37.4122 946.44 40.2964 948.554 43.0068L948.948 42.6994L948.554 43.0068C960.123 57.842 971.721 72.6516 983.318 87.4601C999.892 108.625 1016.47 129.788 1032.95 151.021L1033.35 150.715L1032.95 151.021C1062.4 188.935 1091.88 226.815 1121.37 264.695C1184.47 345.756 1247.56 426.815 1310.25 508.199C1339.73 546.48 1369.15 584.83 1398.13 623.498L1398.53 623.199L1398.13 623.499L1398.23 623.634C1406.96 635.273 1415.67 646.901 1424.29 658.616L1424.69 658.32L1424.29 658.616C1425.66 660.482 1427.11 662.352 1428.57 664.237C1432.21 668.928 1435.92 673.711 1438.68 678.74C1436.75 677.358 1435.02 675.599 1433.35 673.714C1432.57 672.834 1431.79 671.919 1431.02 671.005C1429.72 669.473 1428.43 667.943 1427.11 666.586C1416.74 655.956 1406.51 645.137 1396.55 634.129C1389.07 625.843 1381.29 617.783 1373.51 609.73C1367.74 603.75 1361.97 597.774 1356.33 591.712C1351.4 586.416 1346.49 581.095 1341.58 575.773C1331.96 565.346 1322.34 554.916 1312.54 544.658C1263.71 493.553 1215.53 441.794 1167.37 390.05C1164.76 387.249 1162.15 384.447 1159.55 381.646C1137.53 357.992 1115.3 334.538 1093.07 311.085L1093.05 311.068C1070.82 287.61 1048.59 264.153 1026.57 240.497C1012.85 225.757 999.029 211.108 985.212 196.46L985.181 196.427C971.353 181.768 957.527 167.111 943.798 152.362C941.84 150.259 939.885 148.153 937.929 146.046C929.569 137.039 921.2 128.025 912.615 119.22C911.221 117.789 909.897 116.303 908.563 114.806C907.712 113.851 906.858 112.892 905.979 111.94C903.738 109.513 901.374 107.176 898.633 105.244L897.918 104.741L897.846 105.612C897.534 109.411 896.45 113.068 895.353 116.765C895.025 117.871 894.696 118.98 894.387 120.098C892.877 125.533 891.42 130.997 889.965 136.452C889.415 138.514 888.865 140.575 888.313 142.633L888.313 142.633C886.607 149.005 884.898 155.378 883.189 161.75C877.082 184.528 870.973 207.31 864.945 230.107C849.51 288.451 834.055 346.796 818.302 405.05C815.171 416.631 811.907 428.214 808.639 439.809C801.536 465.018 794.416 490.287 788.599 515.735Z"
        stroke="white" stroke-opacity="0.2" />
    <path
        d="M0 23.1135C2.36663 29.3451 7.59454 34.9035 11.4542 40.3079C20.4063 52.8429 29.8085 65.1042 39.1606 77.3419L121.966 185.799C176.347 256.958 232.137 327.046 286.681 398.083C327.708 451.517 369.071 504.816 411.11 557.462C436.966 589.841 462.135 622.792 487.78 655.337C492.642 661.507 497.561 667.638 502.361 673.854C505.249 677.597 507.91 681.711 511.429 684.905C526.379 698.482 548.348 703.045 567.711 698.006C583.837 693.813 598.074 682.332 605.258 667.241C608.985 659.412 610.427 651.015 612.891 642.772C618.511 623.968 623.01 604.808 628.274 585.898C646.329 521.038 662.837 455.77 680.511 390.809C694.051 341.058 708.128 291.366 720.648 241.35C725.027 223.869 730.029 206.503 734.745 189.105C737.627 178.498 741.429 167.677 742.482 156.701C744.311 137.592 735.692 117.614 720.734 105.652C706.326 94.1289 687.063 89.794 669.064 94.031C658.18 96.593 647.575 102.187 637.267 106.433C624.093 111.86 610.746 116.883 597.521 122.18C528.391 149.866 459.213 177.458 390.177 205.376C369.678 213.667 349.004 221.658 328.57 230.115C316.083 235.283 303.627 240.989 290.811 245.318C294.354 246.164 299.135 244.639 302.735 244.048C311.361 242.632 320.016 241.31 328.57 239.555C351.794 234.789 375.471 231.971 398.789 227.635C482.006 212.159 565.978 200.616 649.191 185.137C648.747 190.566 646.675 195.79 645.224 201.009C643.144 208.489 641.314 216.028 639.194 223.494C632.898 245.668 627.603 268.113 621.308 290.288C603.422 353.285 588.044 416.996 570.53 480.087C563.934 503.844 557.921 527.755 551.319 551.51C547.369 565.72 541.861 580.529 539.888 595.157C535.28 591.177 531.479 586.318 527.276 581.931C516.365 570.539 505.543 559.073 494.784 547.542C467.525 518.329 439.898 489.459 412.641 460.247C324.606 365.9 235.156 272.871 147.121 178.524C112.835 141.78 78.5124 105.04 43.7471 68.7447C33.2773 57.8139 23.2732 46.4028 12.5869 35.6786C8.59489 31.6726 5.02394 25.7908 0 23.1135Z" />
    <path
        d="M296.669 244.729C295.426 244.937 294.21 245.076 293.075 245.068C301.792 242.016 310.355 238.372 318.867 234.749C322.171 233.343 325.467 231.941 328.761 230.577C341.098 225.471 353.516 220.538 365.934 215.604C374.085 212.366 382.236 209.127 390.365 205.84C443.551 184.331 496.821 163.016 550.091 141.702C565.964 135.351 581.836 129 597.707 122.644C603.051 120.503 608.422 118.405 613.796 116.306C621.702 113.217 629.614 110.126 637.458 106.895C640.354 105.702 643.262 104.409 646.185 103.109C653.728 99.7546 661.372 96.3554 669.179 94.5177C687.028 90.3158 706.134 94.6155 720.422 106.042C735.251 117.901 743.797 137.715 741.985 156.653C741.184 164.998 738.788 173.242 736.41 181.421C735.677 183.945 734.945 186.462 734.263 188.974L734.745 189.105L734.263 188.975C732.802 194.36 731.314 199.745 729.826 205.133C726.508 217.139 723.187 229.158 720.163 241.228L720.648 241.35L720.163 241.228C710.792 278.664 700.55 315.916 690.311 353.153C686.872 365.661 683.434 378.167 680.029 390.677L680.511 390.809L680.029 390.677C672.432 418.598 665.054 446.567 657.675 474.534C647.882 511.655 638.09 548.771 627.792 585.764C625.65 593.46 623.638 601.184 621.627 608.904C618.687 620.187 615.749 631.462 612.412 642.629C611.662 645.138 611.002 647.677 610.347 650.199C609.926 651.82 609.507 653.434 609.066 655.029C607.935 659.126 606.652 663.151 604.807 667.026C597.688 681.98 583.573 693.365 567.585 697.522C548.371 702.522 526.579 697.989 511.766 684.535L511.429 684.905L511.765 684.535C509.152 682.163 507.029 679.289 504.893 676.398C504.188 675.444 503.482 674.489 502.756 673.549L502.361 673.854L502.756 673.549C499.498 669.329 496.183 665.147 492.872 660.968C491.303 658.988 489.734 657.01 488.173 655.028C477.618 641.633 467.141 628.166 456.662 614.696C441.688 595.449 426.712 576.198 411.501 557.15C369.465 504.508 328.104 451.211 287.077 397.779C261.46 364.415 235.58 331.276 209.701 298.138C180.459 260.695 151.219 223.254 122.363 185.495C122.363 185.495 122.363 185.495 122.363 185.495L39.558 77.0385L39.5579 77.0383C39.1229 76.4692 38.6879 75.9 38.2528 75.3307C29.3315 63.6585 20.3916 51.9619 11.8611 40.0173C10.8896 38.657 9.83343 37.289 8.76398 35.911C8.68055 35.8036 8.59704 35.696 8.51348 35.5884C7.524 34.314 6.52732 33.0303 5.57044 31.7253C3.81181 29.3267 2.20356 26.8765 1.04816 24.3285C2.94768 25.6068 4.65555 27.3449 6.30431 29.2272C6.99385 30.0144 7.67704 30.8322 8.35922 31.6487C9.64215 33.1844 10.9215 34.7157 12.2327 36.0316C18.5512 42.3724 24.6177 48.9392 30.6905 55.513C34.8908 60.0597 39.0942 64.6098 43.386 69.0906C78.1487 105.383 112.47 142.121 146.756 178.865C190.774 226.04 235.147 272.886 279.518 319.729L279.526 319.738C323.895 366.579 368.262 413.419 412.275 460.588C425.905 475.196 439.627 489.717 453.348 504.238L453.39 504.282C467.097 518.788 480.804 533.293 494.418 547.883C505.179 559.416 516.002 570.883 526.915 582.276C528.32 583.743 529.692 585.278 531.072 586.821C533.771 589.839 536.499 592.891 539.562 595.535L540.26 596.139L540.384 595.224C541.792 584.783 545.003 574.268 548.169 563.9C549.425 559.787 550.674 555.697 551.801 551.644C555.102 539.763 558.257 527.843 561.41 515.927L561.465 515.718C564.6 503.87 567.734 492.026 571.011 480.221C579.081 451.153 586.69 421.979 594.299 392.81C603.217 358.619 612.134 324.432 621.789 290.424C624.937 279.338 627.833 268.186 630.729 257.04L630.735 257.017C633.633 245.861 636.529 234.711 639.675 223.631C640.737 219.892 641.725 216.136 642.708 212.383L642.926 211.549C643.836 208.073 644.744 204.602 645.706 201.143L645.224 201.009L645.706 201.143C646.086 199.775 646.514 198.394 646.946 197.001C648.138 193.153 649.36 189.21 649.689 185.178L649.743 184.526L649.1 184.646C607.5 192.384 565.709 199.139 523.912 205.894L523.847 205.904C482.073 212.655 440.291 219.408 398.697 227.143C388.488 229.042 378.21 230.649 367.923 232.258C366.471 232.485 365.019 232.712 363.567 232.94C351.829 234.782 340.094 236.68 328.47 239.065C321.465 240.502 314.393 241.649 307.314 242.796C305.761 243.048 304.207 243.3 302.654 243.555C301.761 243.701 300.798 243.904 299.815 244.111L299.748 244.126C298.737 244.339 297.701 244.556 296.669 244.729Z"
        stroke="white" stroke-opacity="0.2" />
</svg>